<svg version="1.1" id="prefix__Слой_1" xmlns="http://www.w3.org/2000/svg" x="0" y="0" xml:space="preserve" width="908" height="564" viewBox="0 0 631.1 392.1" xmlns:xlink="http://www.w3.org/1999/xlink">
    <defs>
        <path d="m125.9 308.4-44.1-68.5c-3.3-5.2-1.8-12.1 3.3-15.4l42.9-27.6c5.2-3.3 12.1-1.8 15.4 3.3l44.1 68.5c3.3 5.2 1.8 12.1-3.3 15.4l-42.9 27.6c-5.2 3.4-12.1 1.9-15.4-3.3" id="prefix__reuse-0"/>
        <path d="M133.7 241.6c1.4 2.2 2.7 4.4 4 6.6 1 1.8.3 3.2-.7 4-1.4 1.1-2.9 1.1-4.4 0l-.3-.3c.2 2.4-1.5 3.9-2.4 5.9-.8-1.3-1.5-2.4-2.3-3.5.7-1.2 1.3-2.4 2-3.7.4-.7.5-1.4-.2-2.1-1.3.8-2.6 1.7-4 2.5-.7-1.1-1.3-2-2-3 3.5-2.1 6.8-4.2 10.3-6.4m-.2 4.4c-.7.4-1.3.8-2 1.3.5.6.9 1.3 1.4 1.9.4.5 1 .6 1.5.3s.7-.9.4-1.5c-.4-.7-.8-1.3-1.3-2m9.1 15.8c-.7-.9-1.3-1.8-2-2.7.7-.7.9-1.5.3-2.3-.3-.5-.8-.9-1.5-.7-.5.3-.4.8-.3 1.3.3.8.6 1.7.8 2.5.1.5.2 1 .3 1.4.5 3.1-2.5 4.8-4.8 3.9q-1.2-.45-2.1-1.5c-.9-1-1.6-2.2-2-3.5-.6-1.7.1-3.5 1.7-4.5.6.9 1.3 1.8 2 2.7-.2.2-.3.4-.4.5-.7 1-.5 2.3.5 3 .4.3.9.4 1.4.1.4-.3.6-.7.5-1.2l-.3-1.2c-.2-.9-.5-1.7-.7-2.6-.3-1.7.2-3 1.4-3.6 1.3-.7 2.8-.6 4.1.6 1.2 1.1 2.1 2.4 2.5 4s0 2.7-1.4 3.8" id="prefix__reuse-1"/>
        <path d="M509.5 90.5c6.2-.4 11.5 4.3 11.9 10.5v.7c.4 6.2-4.4 11.4-10.6 11.8s-11.5-4.3-11.9-10.5v-.7a11.2 11.2 0 0 1 10.6-11.8" id="prefix__reuse-2"/>
        <path d="M435.3 91.1c5.9-.3 10.9 4.1 11.2 9.9v.7c.3 5.8-4.1 10.8-10 11.2-5.9.3-10.9-4.1-11.2-9.9v-.7c-.3-5.8 4.2-10.9 10-11.2" id="prefix__reuse-3"/>
        <path d="m517.7 308.4-44.1-68.5c-3.3-5.2-1.8-12.1 3.3-15.4l42.9-27.6c5.2-3.3 12.1-1.8 15.4 3.3l44.1 68.5c3.3 5.2 1.8 12.1-3.3 15.4l-42.9 27.6c-5.2 3.4-12.1 1.9-15.4-3.3" id="prefix__reuse-4"/>
        <path d="M525.5 241.6c1.4 2.2 2.7 4.4 4 6.6 1 1.8.3 3.2-.7 4-1.4 1.1-2.9 1.1-4.4 0l-.3-.3c.2 2.4-1.5 3.9-2.4 5.9-.8-1.3-1.5-2.4-2.3-3.5.7-1.2 1.3-2.4 2-3.7.4-.7.5-1.4-.2-2.1-1.3.8-2.6 1.7-4 2.5-.7-1.1-1.3-2-2-3 3.5-2.1 6.8-4.2 10.3-6.4m-.2 4.4c-.7.4-1.3.8-2 1.3.5.6.9 1.3 1.4 1.9.4.5 1 .6 1.5.3s.7-.9.4-1.5c-.4-.7-.8-1.3-1.3-2m9.2 15.8c-.7-.9-1.3-1.8-2-2.7.7-.7.9-1.5.3-2.3-.3-.5-.8-.9-1.5-.7-.5.3-.4.8-.3 1.3.3.8.6 1.7.8 2.5.1.5.2 1 .3 1.4.5 3.1-2.5 4.8-4.8 3.9q-1.2-.45-2.1-1.5c-.9-1-1.6-2.2-2-3.5-.6-1.7.1-3.5 1.7-4.5.6.9 1.3 1.8 2 2.7-.2.2-.3.4-.4.5-.7 1-.5 2.3.5 3 .4.3.9.4 1.4.1.4-.3.6-.7.5-1.2l-.3-1.2c-.2-.9-.5-1.7-.7-2.6-.3-1.7.2-3 1.4-3.6 1.3-.7 2.8-.6 4.1.6 1.2 1.1 2.1 2.4 2.5 4 .3 1.6-.1 2.7-1.4 3.8" id="prefix__reuse-5"/>
        <path d="m317.6 319.8-49.4-76.7c-3.3-5.2-1.8-12.1 3.3-15.4l48.6-31.3c5.2-3.3 12.1-1.8 15.4 3.3l49.4 76.7c3.3 5.2 1.8 12.1-3.3 15.4L333 323.1c-5.1 3.4-12 1.9-15.4-3.3" id="prefix__reuse-6"/>
        <path d="M325.6 246c1.5 2.4 3 4.8 4.4 7.2 1.1 2 .4 3.5-.7 4.4q-2.25 1.8-4.8 0c-.1-.1-.2-.1-.3-.3.2 2.6-1.6 4.3-2.6 6.5-.9-1.4-1.7-2.6-2.5-3.9.7-1.3 1.5-2.7 2.2-4 .4-.7.6-1.5-.2-2.3-1.4.9-2.8 1.8-4.3 2.8-.8-1.2-1.4-2.2-2.1-3.3 3.5-2.4 7.1-4.7 10.9-7.1m-.2 4.8c-.7.5-1.4.9-2.2 1.4l1.5 2.1c.5.6 1.1.6 1.6.3.6-.3.8-1 .4-1.7-.3-.7-.8-1.4-1.3-2.1m10 17.3c-.8-1-1.5-2-2.2-3 .8-.8.9-1.6.4-2.6-.4-.6-.9-1-1.6-.8-.5.4-.4.9-.3 1.4.3.9.6 1.8.9 2.8.2.5.3 1 .4 1.6.5 3.4-2.7 5.2-5.3 4.2-.8-.3-1.6-.9-2.3-1.6-1-1.1-1.8-2.4-2.2-3.8-.6-1.9.1-3.8 1.8-5 .7 1 1.4 2 2.2 3-.2.2-.3.4-.5.6-.8 1.1-.6 2.5.5 3.2.5.3 1 .5 1.5.1.5-.3.6-.8.5-1.3s-.2-.9-.4-1.4c-.3-.9-.6-1.9-.8-2.8-.3-1.8.2-3.2 1.5-4 1.4-.8 3.1-.6 4.5.6 1.3 1.2 2.3 2.6 2.7 4.3.7 2 .2 3.3-1.3 4.5" id="prefix__reuse-7"/>
    </defs>
    <style>
        .prefix__st0{fill:#fff}.prefix__st1{fill:#caa77a}.prefix__st2{fill:#ffdb1f}.prefix__st3{fill:#b6b1ae}.prefix__st4{opacity:.23;fill:#3f2719}.prefix__st5,.prefix__st6{fill:none;stroke:#9d7b51;stroke-width:4.1072;stroke-linecap:round;stroke-linejoin:round;stroke-miterlimit:10}.prefix__st6{stroke:#2d1f04;stroke-width:2.7806}.prefix__st7{fill:#2d1f04}.prefix__st8{fill:#d2d2d2}.prefix__st9{opacity:.32;fill:#fff}.prefix__st10{fill:#ffdbaf}.prefix__st11{fill:#9d7b51}.prefix__st12{fill:#251707}.prefix__st13,.prefix__st14{fill:none;stroke:#2d1f04;stroke-width:3.2369;stroke-linecap:round;stroke-linejoin:round;stroke-miterlimit:10}.prefix__st14{stroke-width:8.0658}.prefix__st15{opacity:.34;fill:#fff}.prefix__st20,.prefix__st21{fill:none;stroke:#251707;stroke-width:2.7806;stroke-linecap:round;stroke-linejoin:round;stroke-miterlimit:10}.prefix__st21{stroke:#2d1f04;stroke-width:2.6}.prefix__st22{fill:#39c}.prefix__st23{fill:#d3e5ea}.prefix__st24{fill:none;stroke:#2d1f04;stroke-width:2.62;stroke-linecap:round;stroke-linejoin:round;stroke-miterlimit:10}
    </style>
    <path class="prefix__st0" d="M377.2 392.1c-7.9 0-17-.4-26.8-.7l-8.6-.3c-14.8-.5-21.6-.9-25.7-1.3-2.8-.3-6.5-.6-9.6-2.7-3.7.6-7.6.9-11.4 1h-.8c-1.8.1-3.8.1-5.8.2-4.5.2-9 .3-13.1.4-8.6.1-22.2.7-32.1 1.1-7.7.3-11.4.5-12.9.5-7.1 0-11.7-2.7-13.7-7.9-3.2-8.2 3.5-14.3 6-16.6l2.3-1.8c-2.5-2.3-5.3-5.2-8.7-8.7-4.2-4.4-8.2-9.9-11.9-16.3.4 1.6.8 3.1 1.3 4.6.1.4.5 1.3.8 2 2.3 5.6 5.7 13.9 1.8 21.6-2.1 4.1-5.9 6.9-10.6 8-3.8.9-9 1.3-16.9 1.3-7.2 0-15.7-.3-24.6-.7l-7.8-.3c-13.6-.5-19.8-.8-23.6-1.2-2.5-.2-5.9-.6-8.9-2.4-3.8.6-7.5.7-10.1.8h-.7c-1.6.1-3.3.1-5.1.2-4.1.2-8.4.3-12.2.4-7.9.1-20.3.7-29.3 1-7 .3-10.4.4-11.8.4-9.5 0-12.6-5.3-13.7-8.6-.3-.8-.4-1.7-.5-2.6-.6-6.5 4-10.7 6.5-13 0 0 .5-.4 1.3-1-2.1-2-4.4-4.4-7.2-7.3-11.4-12-20.9-31.3-26.4-55-1.3-5.6-2.3-10.4-2.7-13.1-2.8-16.7-3.5-32.7-1.8-45.9l-.1-.1c-1.7-2.4-2.4-5.2-2-8.1 3.8-29.7 16.6-48.1 30.1-55.6-.9-2.5-.9-4.8-.8-6.4-.2-.4-.5-.9-.7-1.3-.3-.5-.5-1-.7-1.4-4.4-8.8-7.8-17.4-10-25.6-11-7.4-18-19.9-18-33.4 0-9.7 3.6-19 9.9-26.2A41 41 0 0 1 22 60.7c-.9-3-.5-6.4 1.2-9.2 1.6-2.5 3.5-4.6 5.6-6.1.4-2.8 1.8-5.4 4.1-7.2 5.7-4.6 12.8-7.1 20.7-7.1 2 0 4.1.2 6.2.5 6.7-7.9 15.6-12 26-12 3.4 0 6.5 1.5 8.7 4 .9 1.1 1.6 2.4 2.1 3.7 2.1-.4 4.4-.5 7-.5 4.7 0 8.8 2.8 10.6 7.2.3.9.6 1.7.7 2.6 4.3 1.6 9 3.7 11.6 4.9.1 0 .1.1.2.1 23.4 11.5 40.9 28.6 52 50.7 8.3 16.5 12.9 35.8 13.8 57.4 8.2 1.9 14.9 5.2 20.5 10.1-.6-2.2-.5-4.2-.3-5.5-.2-.5-.6-1.2-.9-1.7s-.6-1-.8-1.6c-10.5-20.9-15.3-40.3-14.5-57.8a14.03 14.03 0 0 1 1.5-22.4c1.4-.9 2.7-1.7 4.1-2.5 1.2-2.9 2.6-5.6 4.2-8.3 1.2-2 2.4-3.8 3.7-5.6a15.4 15.4 0 0 1-.9-10.8l-.6-2c-1.9-8.2 1.9-16.4 9.9-21.4 1.7-1.1 3.6-1.6 5.7-1.7 3.1-4.9 8.3-9.1 15.6-10.4.6-.1 1.3-.2 2-.2 1.5 0 2.9.3 4.2.8.9-1 1.9-1.9 3-2.8 5-3.9 11-5.9 17.6-5.9 8 0 14.2 3 14.5 3.2 3.6 1.8 5.9 5.2 6.3 9.1v.1c1 .5 1.9 1.2 2.7 2a12 12 0 0 1 2.9 5.2c2.3.8 4.7 1.6 7.1 2.4 5.7 1.9 11.6 3.8 17.5 6.6 57.2 26.8 69.7 81.9 71.3 117.6 13.2 2.8 23.1 9.1 30.6 19.8.9-.6 1.8-1.2 2.8-1.7-.9-2.5-.9-4.8-.8-6.4-.2-.4-.5-.9-.7-1.3-.3-.5-.5-1-.7-1.4-8.8-17.5-13.3-34-13.5-49-1-1.6-1.7-3.5-2-5.5-.5-3.7.4-7.4 2.7-10.4.4-.5.8-1.1 1.2-1.6 1.5-6.3 4-12.3 7.2-17.8.5-.9 1-1.7 1.6-2.5-.3-1-.5-2-.5-3-.2-.2-.4-.5-.6-.7a11.3 11.3 0 0 1-.9-13.2c1.6-2.5 3.5-4.5 5.6-6.1.4-2.8 1.8-5.4 4.1-7.2 5.3-4.4 11.9-6.8 19.2-7.1.7-1.6 1.6-3 2.7-4.3 2-2.4 5-3.8 8.2-4h.5c3 0 5.9 1.2 8 3.3 1.8 1.8 4.4 3.2 7.6 4.2a11 11 0 0 1 8-3.3c2.6 0 5.1.9 7.2 2.5 1.9 1 8.4 3.2 12.8 4.6l.2.1a127 127 0 0 1 19.2 7.5c.1 0 .1.1.2.1 23.4 11.5 40.9 28.6 52 50.7 8.3 16.5 12.9 35.8 13.8 57.4 26.9 6.2 36.8 28.4 43.7 62q.15.3.3.9c1 3 2.8 9-.2 14.5.5 2.1.8 4.1 1.1 5.6v.1c4.8 26.7-.8 46.3-3.5 53.4-2.8 7.6-10.2 16.8-29.2 19.3-3.4 12-2.3 27.7 1.1 37.9.1.4.5 1.3.8 2 2.3 5.6 5.7 13.9 1.8 21.6-2.1 4.1-5.9 6.9-10.6 8-3.8.9-9 1.3-16.9 1.3-7.2 0-15.7-.3-24.6-.7l-7.8-.3c-13.6-.5-19.8-.8-23.6-1.2-2.5-.2-5.9-.6-8.9-2.4-3.8.6-7.5.7-10.1.8h-.7c-1.6.1-3.3.1-5.1.2-4.1.2-8.4.3-12.2.4-7.9.1-20.3.7-29.3 1-7 .3-10.4.4-11.8.4-9.5 0-12.6-5.3-13.7-8.6-.3-.8-.4-1.7-.5-2.6-.6-6.5 4-10.7 6.5-13 0 0 .5-.4 1.3-1-2.1-2-4.4-4.4-7.2-7.3-6.7-7-12.7-16.6-17.6-28.2-1.7.3-3.5.6-5.4.8-.1.1-.1.3-.2.4-4.6 13.7-2.1 31.2 1.5 42.3.1.4.6 1.4.9 2.3 2.4 5.9 6.1 14.8 2 22.7-2.1 4.2-6 7.1-10.9 8.2-4.2 1-9.8 1.4-18.3 1.4"/>
    <path class="prefix__st1" d="M193.8 346.8c1.4 4.4 7.7 15.3.3 17.1-7.4 1.7-26.1.8-44.2.1-15.5-.6-29.6-1-29-2.1 4.3-5.4 11.3-11.7 29.4-14.9-6.3-2.2-10.7-7.4-12.9-13.8-7.6 2-15.7 2.8-24 2.8 0 .2 0 .3.1.5 0 .2 0 .4.1.5 0 .2.1.4.1.6s.1.4.1.6.1.4.1.6l.3 1.2c.1.2.1.4.2.6.2.6.3 1.2.5 1.8.2.5.3 1.1.5 1.6 1.2 3.8 2.9 8 4.3 11.4.1.3.2.6.2.9v.5c-.8 4-13.3 4.1-16.2 4.2-5.3.2-11.8.5-17.1.6-13.1.2-37.9 1.5-40.9 1.5-1.5 0-2.7-.1-2.8-.6v-.1c-.1-.6.7-1.7 2.9-3.6 1.1-1 16.4-12.8 29.2-12.4h.1c-1.9-1.9-3.8-4.9-5.3-8.4-.1-.2-.2-.5-.3-.7l-.6-1.5c-1.2-3-2.1-6.3-2.5-9.3-.5-.2-1-.4-1.5-.7-6.6-2.9-13.7-6-19.1-10.8-5.1-4.5-6.3-7.5-7.1-7.9-.2-.1-.1 3.3-.2 3.3-2.3.8-5.8-12.3-6.7-13.8-.7-1.2-2.4 3.5-2.4 3.5s-4-7.9-3.9-15.3c-2.7-1-5.2-2.2-7.6-3.4-.6-.3-1.2-.7-1.8-1-.3-1.1-.5-2.2-.7-3.2s-.3-2.1-.3-3.1c-.6-10.2 3.1-21.5 6.6-30.5.2-.7.5-1.3.8-1.9.1-.3.3-.7.4-1 .7-1.7 1.6-3.6 2.4-5.6l.6-1.2c.2-.4.4-.9.6-1.3.1-.2.2-.3.2-.5.1-.3.3-.6.4-.8.4-.9.9-1.7 1.3-2.5s.8-1.5 1.2-2.2c-.1-.2-.2-.3-.2-.5v-.1c-.9-2-1.4-4-1.5-6.1v-3.1c.1-1.6.4-3.2.8-4.8 1.7-6.9 5.5-13.7 8.2-18.9.7-1.3 2.3-4.1 2.5-5.3v-.1c0-.8-1-1.9-1.2-3.2v-.2c0-.4 0-.9.2-1.3.3-.6 1.1-2 1.9-3 .2-.3.4-.6.7-.8l.2-.2c.2-.2.4-.3.5-.3s.2 0 .2.2v.2c0 .2 0 .3-.1.4v-.4c.1-1.2.3-4.4.4-7.1.1-2.5 0-4.8-.2-4.8-.8-.2-1.3 1.5-1.5 1.7-.6.6.3-1.5.4-2.3.2-2 .5-4.4.2-6.5-.1-.5-1 1-1.2.6-.5-1 .2-2.9 0-4-.3-2.2-1.7-4.5-2.7-6.5-11.2-22.4-18.6-49.8-4.7-73.4 3.1-5.3 6.9-9.4 11.8-12.6-2.6-.3-6.1-.5-9.1.9 2.7-4.8 4.9-5.9 8.3-6.7.1-.5-6.3-2.8-11.6-.8 4.7-7.7 17.5-6.6 17.5-8.4 0-2.1-5.8-2.8-10.3-2.1 6.9-5.6 16.6-5.6 24.4-2.3 5.2-9.5 12.4-14.3 21.2-13.7-.4 4.1-1.1 9.1 3.8 12.2 4.8-3.8 7.3-5.2 14-5-4 3.1-4.4 5.2 5.8 8.6 3.8 1.3 8.8 3.5 12.2 5.1 44.9 22.1 59.5 64.3 59.6 108.5.1 21.4 26.3 97.3 15.4 134.6-7.3 14.5-6.5 36.9-1.7 51.7"/>
    <path class="prefix__st1" d="M41.6 335.7c-3.4-4-7-8-11.3-15.4-14.9-25.2-21.6-72.7-17-96.1 4.2 3 10.8 4.3 17.5 4.8-.3 9 1.4 13.8 2.8 15.4.9 18.3 3.1 28.1 5.5 34.6 2.2 5.5 5 11.2 8.3 16.9-1.4 14.7-1 21 4.3 34.4 8.1 20.5 2.6 20.5-10.1 5.4"/>
    <path class="prefix__st2" d="M42 171.7c0 2.2-.1 4.9-.2 7.6-.5 7.1-4 14.1-5.8 20.5-3.5 12.5-4.9 22.1-5.1 29.1-6.8-.4-13.3-1.8-17.5-4.8-1.2-.8-2.2-1.8-3-2.9 4.5-34.9 21.7-48.7 31.6-49.5"/>
    <path class="prefix__st3" d="M170 364.7c-2.6-.1-5.3-.1-7.9-.2-1.2 0-2.5-.1-3.7-.1l-8.5-.3h-2.2c-1.5-.1-2.9-.1-4.4-.2h-1l-7.4-.3h-1c-.4 0-.8 0-1.1-.1-.5 0-.9 0-1.4-.1-.4 0-.9 0-1.3-.1-.5 0-1-.1-1.4-.1-.5 0-1-.1-1.4-.1-.9-.1-1.7-.1-2.5-.2-.4 0-.7-.1-1-.1h-.1c-.3 0-.5-.1-.8-.1-.2 0-.4 0-.5-.1h-.2c-.4-.1-.7-.1-.9-.2-.1 0-.1 0-.2-.1-.1 0-.1 0-.1-.1l-.1-.1v-.1c.6-.8 1.3-1.5 2-2.3.2-.3.5-.5.8-.8l.8-.8c.3-.3.6-.5.9-.8 2-1.7 4.6-3.5 7.8-5.1.6-.3 1.2-.6 1.8-.8.1 0 .1 0 .2-.1.3-.1.6-.3.9-.4.4-.2.9-.3 1.3-.5.4-.1.8-.3 1.2-.4l.9-.3 1-.3c.2-.1.4-.1.7-.2l.9-.3c.3-.1.6-.2.9-.2 1-.3 2-.5 3-.7l1.6-.3c.8-.2 1.7-.3 2.5-.5 8 2.9 16.1 8.6 19.9 17.5m-81.4-3.1h-2.1c-13.1.2-37.9 1.5-40.9 1.5-1.3 0-2.2 0-2.7-.4s-.2-1.2 1.4-2.7l.3-.3.3-.3c.2-.2.5-.4.7-.7 1.1-1 16.4-12.8 29.3-12.4 5.3 3.6 10.8 8.8 13.7 15.3"/>
    <path class="prefix__st4" d="M119.9 356.6v.3c0 .2-.1.3-.1.4s-.1.2-.2.4q-.15.3-.6.6c-.2.2-.5.4-.8.5-.1.1-.3.2-.5.2a24 24 0 0 1-5.6 1.5c-.2 0-.5.1-.7.1s-.5.1-.7.1-.5 0-.7.1c-1.6.2-3.2.2-4.4.3h-3.9c-.8 0-1.6.1-2.4.1-.6 0-1.3 0-1.9.1H96c-1.1 0-2.1.1-3.2.1-1.5 0-3 .1-4.4.1h-2.1c-13.1.2-37.9 1.5-40.9 1.5H44c-.2 0-.3 0-.5-.1H43s-.1 0-.1-.1c-.1 0-.1 0-.1-.1l-.1-.1c-.1-.1-.1-.2-.1-.3v-.3c0-.1.1-.2.1-.3v-.1s0-.1.1-.1c0-.1.1-.1.1-.2s.1-.2.2-.3c0 0 0-.1.1-.1.1-.1.2-.3.4-.5.1-.1.1-.2.2-.3l.3-.3.3-.3.3-.3c.2-.2.5-.4.7-.7l.1-.1.1-.1s.1 0 .1-.1c.2-.2.5-.4.9-.7 0 0 .1 0 .1-.1 0 0 .1 0 .1-.1 2.1-1.5 6.2-4.4 11.1-6.8.1-.1.3-.1.4-.2 1-.5 2-.9 3-1.3.1-.1.3-.1.4-.2.1 0 .1 0 .1-.1.6-.2 1.2-.5 1.8-.7.9-.3 1.7-.6 2.6-.8.3-.1.5-.2.8-.2.8-.2 1.6-.4 2.4-.5h.3c.2 0 .4-.1.6-.1h.6c.2 0 .4 0 .6-.1h.3c.3 0 .6 0 1-.1h1.8s-.1 0-.1-.1l-.3-.3c-.6-.6-1.1-1.3-1.7-2.1-1.3-1.8-2.5-4.1-3.5-6.6l-.6-1.5c-1.2-3-2-6.3-2.5-9.3 13.6 5.7 30.6 9.4 47.1 9.5 0 .2 0 .3.1.5 0 .2 0 .4.1.6 0 .2.1.4.1.6s.1.4.1.6.1.4.1.6l.3 1.2c.1.2.1.4.2.6.9 3.3 2.2 7 3.6 10.5.4 1.1.8 2.2 1.3 3.2.2.4.3.9.5 1.2.4.5.5.9.5 1.2M197 362c-.2.3-.4.5-.6.7-.5.5-1.3.9-2.3 1.1-4.7 1.1-12.3 1.1-24.1.8h-.5c-1.1 0-2.2-.1-3.3-.1-2.2-.1-4.4-.1-6.6-.2-.5 0-1.1 0-1.6-.1-.6 0-1.2 0-1.8-.1-.8 0-1.5-.1-2.3-.1-1.3 0-2.7-.1-4-.1-1 0-2-.1-3-.1h-3.3c-1.4 0-2.8-.1-4.1-.2h-1.8c-.6 0-1.2 0-1.8-.1h-1.7c-1 0-2-.1-2.9-.1h-.9l-8-.7c12-4.7 32.8-6.1 42.7-5.5h.1c4.4.3 7.9.7 9.8.8 6.7.2 9.1-1.3 6.3-10.7-2.7-9-11.1-25.6-5.7-53.4 5.7.8 14.9 1.1 20.1 1.1-7.5 15.7-6.1 38.6-1.7 52.1 1 3.3 5.3 11.1 3 14.9"/>
    <path class="prefix__st5" d="m53.1 169.6-.1 5.9m6.4-2.9v5.9"/>
    <path class="prefix__st2" d="M195.5 294.6c-16.4 3.3-52 3.4-76.3 3.2-8.4.1-16.7 0-24.6-.3-16.8-.6-34.5-3.3-50.1-7-4.1-1-8.1-2-11.8-3.2-2.6-.8-5-1.6-7.3-2.4-2.7-1-5.2-2.2-7.5-3.4-.6-.3-3.7-1.4-3.8-2.3-.2-1.2 1.6-16.4 3-22 .6-2.4 1.4-4.8 2.1-7.1q1.2-3.45 2.4-6.6c.2-.7.5-1.3.8-1.9.1-.3.3-.7.4-1 .7-1.7 1.6-3.7 2.4-5.6l.6-1.2c.2-.4.4-.9.6-1.3.1-.2.2-.4.2-.5.2-.3.3-.6.4-.8l.3-.6c.3-.6.6-1.2 1-1.8.4-.8.8-1.5 1.2-2.2-.1-.2-.2-.3-.2-.5v-.1c-.9-1.9-1.4-4-1.5-6.1v-2.4c0-.2 0-.5.1-.7.1-1.6.4-3.2.8-4.8.3-1.3.7-2.6 1.1-3.9 1.9-5.5 4.8-10.8 7-15.1.1-.2.2-.3.3-.6l.3-.6c.1-.2.2-.5.4-.7.1-.2.3-.5.4-.8.3-.6.6-1.2.8-1.8.1-.2.1-.4.2-.6 0-.1 0-.2.1-.2v-.1c0-.8-1-1.9-1.2-3.2v-.2c0-.3 0-.7.1-1 0-.1.1-.2.1-.3.3-.6 1.1-1.9 1.9-3 .2-.3.4-.6.7-.8l.2-.2c.1-.1.3-.2.4-.3h.2l.1.1v.6c10.8 3.1 20.5 5 29.5 6 25.3 2.9 43.8-1.1 58.2-5 10.4-2.8 30.8-10.7 50.8-19.3.5 22.5 25.9 96.8 15.2 133.6"/>
    <path class="prefix__st6" d="M123.1 361.8a81 81 0 0 1 26.3-7.8c4-.5 8-.7 11.8-.5m-116.4 8.4c4.9-4.1 27.2-12.3 35.5-10.9"/>
    <path class="prefix__st6" d="M150.3 347c8.1 3.2 15.9 9.3 19.7 17m-95.1-17.6c5.4 3.6 10.4 7.9 13.3 13.6"/>
    <path class="prefix__st6" d="M137.4 333.2c2.2 6.4 6.6 11.6 12.9 13.8-18.1 3.2-25.1 9.5-29.4 14.9-.5 1.1 13.5 1.6 29 2.1 18 .7 36.7 1.6 44.2-.1 7.4-1.7 1.2-12.7-.3-17.1-4.8-14.8-5.6-37.2 1.7-52.1M113.3 336c0 .2 0 .3.1.5 0 .2.1.4.1.6s.1.4.1.6.1.4.1.6.1.4.1.6l.3 1.2c.1.2.1.4.2.6.2.6.3 1.2.5 1.8.2.5.3 1.1.5 1.6 1.2 3.8 2.9 7.9 4.3 11.4.1.3.2.6.2.9v.5c-.8 4-13.3 4.1-16.2 4.2-5.3.2-11.8.5-17.1.6-13.1.2-37.9 1.5-40.9 1.5-1.5 0-2.7-.1-2.8-.6v-.1c-.1-.6.7-1.7 2.9-3.6 1.1-1 16.4-12.8 29.2-12.4h.1c-1.9-1.9-3.8-4.9-5.3-8.4-.1-.2-.2-.5-.3-.7l-.6-1.5c-1.2-3-2.1-6.3-2.5-9.3M42 171.7c-9.9.7-27.2 14.4-31.8 49.6 3.2 4.5 10.3 6.7 18 7.4"/>
    <path class="prefix__st3" d="M55.2 346c-.4.6-1.7.5-3-.3s-3-2.3-5.2-4.4l-1-1c-.4-.4-.9-.9-1.3-1.4-.3-.3-.6-.7-1-1-.8-.9-1.7-1.8-2.6-2.8-3.5-3.9-7.2-8.9-10.8-14.8 7.1 2.1 11.5.9 17.2-1.4.8 2.8 2.3 6.6 3.6 9.8 4 10.1 5.1 15.7 4.1 17.3"/>
    <path class="prefix__st6" d="M15.8 280.4c4.6 21.2 13 41.7 24.5 53.8 16.2 17.1 19.1 16.9 11.1-4.5-2-5.3-3.3-9.4-4-13.1m-34.1-92.5c-2.6 13.2-2.2 30.9 1.1 49.2"/>
    <path class="prefix__st6" d="M39.1 321.6c1.3 6.5 7.9 15.4 15.7 24.3M11.4 214.5c4.9 4 10 5.5 15.9 6.4"/>
    <path class="prefix__st6" d="M30.3 320.3c5.1 1.5 10 1.7 17.2-1.4"/>
    <path class="prefix__st5" d="M54.6 300.3v6m6.1-2.1v6"/>
    <path class="prefix__st4" d="M20.1 247.3c3.6-4.3 8-10.1 10.1-11.3 4.3-2.7 10.4-2.3 15.2-2.3 12.4 0 22 10.2 35.2 11.5 8.1.8 22.4-6.9 20.2-10.8-1.9-3.2-5-.7-21.9-1.2-12.7-.4-24.2-1.5-36.6-3.6-3-.5-10.1-.5-12.6-5-.5 2-2.7 6.8-3.7 8.9-2.4 4.7-4.5 10.3-5.9 13.8"/>
    <path class="prefix__st6" d="M41.6 179.2c41.2 11.8 83.1 3.4 87.7 1.1"/>
    <path class="prefix__st6" d="M119.1 297.9c-8.4.1-16.7 0-24.5-.3-21.3-.8-43.9-4.9-61.9-10.2-2.6-.8-13.8-4.9-18.7-8.2 1.1-14.5 4.1-26.7 7.6-35.6.2-.7.5-1.3.8-1.9.1-.3.3-.7.4-1 .7-1.7 1.6-3.7 2.4-5.6l.6-1.2h0v0c.2-.4.4-.9.6-1.3.1-.2.2-.3.2-.5.1-.3.3-.6.4-.9.9-1.7 1.7-3.3 2.5-4.7v-.1c-.1-.2-.2-.4-.2-.5v-.1c-.9-1.9-1.4-4-1.5-6.1v-.5c-.1-.9 0-1.8 0-2.6.1-1.6.4-3.2.8-4.8 1.7-6.9 5.5-13.7 8.2-18.9.7-1.3 2.3-4.1 2.5-5.3v-.2q0 0 0 0c0-.8-1-1.9-1.2-3.2v-.2c0-.4 0-.9.2-1.3.3-.6 1.1-1.9 1.9-3 .2-.3.5-.6.7-.8.1-.1.2-.1.2-.2.2-.2.4-.3.5-.3s.2 0 .2.2v.4q0 0 0 0v.1h0v.2m6.2 2c-.6 1.7-1.2 3-1.2 4.9m11.7-2.8c-.8 1.6-.9 3.6-.9 5.4m13.5-3.7-.7 4.2m9.6-3.1v3.3m-4.9-3v2.3m34.8-3.7v2.3m3.5-2.3v1.8"/>
    <path class="prefix__st7" d="M71.1 222.2c-.5-1.7-2-3-4.8-3.1-5.8-.3-11.8-.4-19.1-.6-.2.6-.3 1.1-.5 1.7a55 55 0 0 1-4.7 9.4c-.4.8-.9 1.5-1.3 2.3-.4.6-.7 1.2-1 1.8-2.4 4.3-4.4 8.7-4.6 13.9 3.3 0 6.4.1 9.7.2-.2-4.2 1.4-8.1 3.5-11.8 2.9-.4 3.4.8 3.6 2.5.3 3.1 1.1 6.3 2.8 9.7 3.5.2 6.8.4 10.5.7-2-3.5-1.9-7.2-2.8-10.2-.2-.6-.4-1.1-.6-1.6-.4-.8-.9-1.4-1.7-2 .5-.1.8-.2 1.1-.2q2.7-.75 4.8-2.1c.1 0 .1-.1.2-.2 2.4-1.6 4.2-3.8 5-6.6.2-1.4.3-2.7-.1-3.8m-16.3 2.4c2 0 3.9-.1 5.6.1s2 1.4 1.2 2.9c-.8 1.4-2.2 2.5-4 2.6-2 .2-3.9.2-6 .2 1.2-2.1 2.3-3.9 3.2-5.8"/>
    <path class="prefix__st7" d="M97.8 227.6c-3.2.2-6.1.3-9 .5.4-2.6-.7-3.9-3-4-1.5-.1-2.9.4-4 2.2-.4 1.5.3 2 1.3 2.3l5.7 1.8c1.1.4 2.1.8 3.1 1.4 6.3 3.4 2.9 12.2-3.2 16.2-2 1.3-4.4 2.1-6.5 2.4-3.5.5-6.9.2-10.2-1-4.3-1.5-6.8-5.6-4.9-10.5 2.8 0 5.5 0 8.5-.1 0 .6-.1 1.2-.1 1.7.1 3 2.9 4.5 6.1 3.5 1.4-.5 2.6-1.4 3.1-2.8.4-1.3 0-2.3-1-2.8-.9-.5-1.8-.8-2.7-1.1-1.9-.7-3.8-1.3-5.5-2.2-3.1-1.8-3.5-4.6-2-7.9 1.7-3.7 4.6-6.7 8.5-7.8 3.7-1.1 7.4-1.1 11.2.2 3.8.9 5.5 3.4 4.6 8"/>
    <path class="prefix__st6" d="M149.9 328.5c-10.6 5.3-23.4 7.5-36.6 7.4h0c-16.5-.1-33.5-3.8-47.1-9.5q0 0 0 0c-.5-.2-1-.4-1.5-.7-6.6-2.9-13.7-6-19.1-10.8-5-4.5-6.3-7.4-7.1-7.9-.2-.1-.1 3.3-.2 3.3-2.3.8-5.8-12.3-6.7-13.8-.7-1.2-2.3 3.5-2.3 3.5s-4-7.9-3.9-15.3v-.1M39 187.5c7.6 5.6 39.4 12.4 80.6 5.9"/>
    <use class="prefix__st8" xlink:href="#prefix__reuse-0"/>
    <path class="prefix__st4" d="M184.2 284.4 140.8 312c-5.7 3.2-11.2 2-14.7-3.2l-44.9-69.7c-2.6-4.4-1.8-8.3.1-11 1.5-2.2 3.8-3.5 5.2-4.3-4.2 5.2-3.9 10.9-1.7 14.2 12.1 18.8 43.4 66.2 43.4 66.2 3.5 5.1 8.1 5.3 12.9 2.7 0 0 26.4-17 39.5-25.4 3.5-2.3 7.4-7.8 4.5-16.5 1.4 2.1 3 3.9 3.8 5.8 1.1 2.2 2.2 8.8-4.7 13.6"/>
    <path class="prefix__st9" d="M140.5 202.6c-3.3-4-6.7-4.2-11.8-1.9 0 0-1.7.8-48.3 27l48.4-31.2c5.4-3.3 11.1-2.2 14.7 3.2l47.7 74c-25.1-35.5-50.7-71.1-50.7-71.1"/>
    <use class="prefix__st6" xlink:href="#prefix__reuse-0"/>
    <use xlink:href="#prefix__reuse-1"/>
    <use xlink:href="#prefix__reuse-1"/>
    <path class="prefix__st1" d="M222.1 282.1c-2.5 8.3-12.9 13.7-36.1 12.4-17-1-31.4-3.9-54.2-13.4-11.1-4.7-17.1-2.6-21.9-9.3-11.7-16.1-22.6-12-21.3-14.2s6.9-7.9 14.1-8.5c13.7-1.1 17.8 11 25.9 11.7 13.3 1.1 48 3 49.9.1 1.4-2.1-2.7-6.7-6.3-12.4-2.5-4-3.2-6.7-3.9-10.8.1-.1 21.2-23.3 53.5-15.1.8.2 2.4 7.4 3.4 13.7 3.6 22.4-.2 36.2-3.1 45.8"/>
    <path class="prefix__st2" d="M223.9 222.4c-.5.2-1.2.3-2 .2-29-2.2-41.6 7.9-50.8 14.8-.1.1-.2.2-.3.2-5.4 3.8-6.6-2.2-6.7-7.8-.8-1.4-2.4-3.9-4.9-6.9-.8-3.7-1.6-8.4-3.5-11.6l-4.1-34.2c6.2-8.7 18.2-19.9 34.9-16.9 19.6 3.6 29.5 15.5 37.4 53.8.5 2.3 3 7.3 0 8.4"/>
    <path class="prefix__st4" d="M223.9 222.4c-.5.2-1.2.3-2 .2-3.8-.3-7.4-.4-10.7-.3-.3-4.5-.9-9.1-1.7-13.6-2.4-13.7-10.8-47.2-31.9-48.9 2.8-.3 5.8-.3 8.9.3 19.6 3.6 29.5 15.5 37.4 53.8.5 2.4 3 7.4 0 8.5"/>
    <path class="prefix__st3" d="M115.1 276.1c-1.9-.9-3.6-2.2-5.2-4.4-11.7-16.1-22.6-12-21.3-14.2s6.9-8 14.1-8.5c11.1-.9 16 7 21.8 10.3-5 2.6-10.8 7-9.4 16.8"/>
    <path class="prefix__st4" d="M222.1 282.1c-2.5 8.3-12.9 13.7-36.1 12.4-17-1-31.4-3.9-54.2-13.4-11.1-4.7-17.1-2.6-21.9-9.3-11.7-16.1-22.6-12-21.3-14.2 1-1.7 4.7-5.7 9.8-7.5-1.1 3.5 5.3 4.7 10.1 9.9 5.5 6 4.4 10.2 13.7 13.7s48.5 15.3 70.3 13.2c21.7-2.1 21.2-6.8 23.2-15.2 2-8.6 1-26.6-3.1-49.3 2.9 0 6.3.2 9.3.3.8 0 2.4 7.4 3.4 13.7 3.6 22.3-.3 36.1-3.2 45.7"/>
    <path class="prefix__st6" d="M168.4 237.7c.6 3.3 2 6.7 3.2 9.3 2.8 6.1 8.3 11.7 7 13.8-1.9 2.9-36.6 1-49.9-.1-8.1-.7-12.2-12.8-25.9-11.7-7.3.6-12.8 6.4-14.1 8.5-1.3 2.2 9.6-1.9 21.3 14.2 4.9 6.7 10.8 4.7 21.9 9.3 22.8 9.5 37.1 12.5 54.2 13.4 23.2 1.3 33.1-4.3 36.1-12.4 3.3-8.8 6.9-25.6 3-47.4-.6-3.2-1.6-9.1-3.2-12.1"/>
    <path class="prefix__st6" d="M171.1 237.4c-7 1.5-6.9-2.1-7-7.9m-5-6.6c2.6 3.1 4.2 5.7 5 7m-5-7c-.8-3.7-1.6-8.4-3.5-11.6m-4-34.2c6.2-8.7 18.2-19.9 34.9-16.9 19.6 3.6 29.5 15.5 37.4 53.8.6 2.8 3.9 9.2-2 8.7-12.5-1.2-27.2 0-41.1 8"/>
    <path class="prefix__st6" d="M165 229.6c9-9.7 25.4-18.3 41.6-16.8"/>
    <path class="prefix__st6" d="M172.3 224.1c.6 1.6 1.4 2.6 2.4 4m6.1-8.8 1.9 3.6m6.4-7.2 1 3.9"/>
    <path class="prefix__st5" d="m212.6 244.8-.1 5.9m-6-1.2-.1 5.9"/>
    <path class="prefix__st6" d="M115.1 276.1c-1.1-6.4 1.8-13.3 9.4-16.7"/>
    <path class="prefix__st6" d="M88.6 257.6c11.7-5.5 19.5-4.9 29 7.1m62.5-105.3c.5-44.2-14.7-85.6-59.6-107.7-3.4-1.6-8.4-3.8-12.2-5.1-10.2-3.4-9-5.6-5.8-8.6-5.7 0-7.8.4-14 5-4.1-2.8-4.8-6.1-3.8-12.2-8.7 0-15.8 3.8-21.2 13.7-7.8-3.3-17.5-3.3-24.4 2.3 4.6-.7 10.3 0 10.3 2.1 0 1.8-12.7.7-17.5 8.4 5.2-2 11.7.3 11.6.8-3.4.8-5.6 1.9-8.3 6.7 3-1.4 6.5-1.2 9.1-.9-4.8 3.2-8.6 7.3-11.8 12.6-13.9 23.5-6.5 51 4.7 73.4 1 2 2.4 4.2 2.7 6.5.2 1.1-.5 3 0 4 .2.4 1.2-1.1 1.3-.6.3 2.1 0 4.4-.2 6.5-.1.8-1 2.8-.4 2.3.2-.2.7-1.9 1.5-1.7.4.1 0 11.3-.3 12.4m121.7 118.1c6.2-.3 22.4-.9 32-2.7"/>
    <path class="prefix__st4" d="M129.2 333.9c-.3 0-.6.1-.9.1-.4.1-.8.1-1.2.2-.6.1-1.2.2-1.8.2-1.2.1-2.3.3-3.5.4-3.2.3-6.4.4-9.7.4-16.5-.1-33.5-3.8-47.1-9.5-.5-.2-1-.4-1.5-.7-2.9-1.3-5.9-2.6-8.8-4-.8-.4-1.6-.9-2.4-1.3-2.1-1.2-4.1-2.4-5.9-3.9-.7-.5-1.3-1-1.9-1.6-.3-.3-.6-.6-.9-.8-.4-.4-.8-.8-1.2-1.1-.5-.5-.9-1-1.3-1.4l-.6-.6c-.2-.2-.3-.4-.5-.6-1.3-1.6-2-2.7-2.4-3.1-.1 0-.1-.1-.2-.1-.2-.1-.1 3.3-.2 3.3h-.4c-.4-.1-.9-.7-1.4-1.5-.2-.3-.3-.6-.5-.9-1-1.9-2-4.7-2.8-7-.1-.2-.1-.4-.2-.6-.7-1.9-1.2-3.4-1.4-3.8-.1-.1-.1-.2-.2-.2s-.3 0-.4.2c-.3.3-.6.9-.9 1.5 0 .1-.1.1-.1.2v.1c-.1.2-.2.4-.3.7 0 .1-.1.2-.1.3-.2.4-.3.8-.3.8-.1-.1-1-2-1.9-4.7-.1-.2-.1-.4-.2-.5-.1-.4-.2-.8-.4-1.1-.8-2.6-1.5-5.8-1.4-8.8v-.1q2.4.9 5.1 1.8h.1c.9.3 1.7.6 2.2.7 3.8 1.1 7.7 2.2 11.8 3.2 15.6 3.7 33.2 6.4 50.1 7 3.2.1 6.5.2 9.9.2-25.9.3-47.6-3.5-58.2-4-3.4-.1-5.7.1-6.6.9-1.4 1.3-.5 8 7.1 15.3 2.3 2.2 5.2 4.4 8.8 6.5 18.4 10.8 52.9 20 74.6 17.9m-88.3-163c0 .9 0 1.8-.1 2.8v1.9c0 .3 0 .6-.1.9v1.7-.3s0-.1-.1-.1c0 0-.1-.1-.1 0h-.1c-.1 0-.2.1-.4.3l-.2.2c-.2.2-.4.5-.7.8-.8 1-1.6 2.4-1.9 3 0 .1-.1.2-.1.3v1.2c0 .2.1.3.1.5.3.9.8 1.7 1 2.3v.1c0 .1.1.2.1.3v.2c0 .2-.1.4-.2.6-.2.5-.5 1.2-.8 1.8-.1.2-.3.5-.4.8-.1.2-.3.5-.4.7l-.3.6-.3.6c-2.2 4.3-5.1 9.6-7 15.1-.4 1.3-.8 2.6-1.1 3.9-.2.6-.3 1.2-.4 1.8 0 .2-.1.4-.1.6-.1.4-.1.8-.2 1.2s-.1.8-.1 1.2v3.1c0 .2 0 .5.1.7 0 .2 0 .3.1.5 0 .3.1.6.1.9 0 .2.1.4.1.6v.1c0 .2.1.3.1.4v.3c.1.2.1.4.2.5.1.2.1.4.2.7.2.4.3.9.5 1.3-.3.8-.7 1.8-1.1 2.8s-.9 1.9-1.2 2.8c0 0 0 .1-.1.1-.1.1-.1.3-.2.4-.1.2-.2.3-.2.5-.2.4-.4.9-.6 1.3l-.6 1.2c-.9 1.9-1.7 3.8-2.4 5.6-.1.4-.3.7-.4 1-.2.6-.5 1.3-.8 1.9q-1.2 3.15-2.4 6.6c-.8 2.3-1.5 4.7-2.1 7.1-.1.4-.2.9-.3 1.4-.8 3.2-1.4 6.6-1.6 9.8-.2 1.2-.3 2.4-.5 3.6-1-5.8-1.7-11.6-2.2-17.3 3.1-7.9 6.3-17.4 9.2-27.2.2 0 .5.1.7.2-.2 0-.5-.1-.7-.2.7-2.4 1.4-4.9 2.1-7.4 4.9-17.7 8.9-35.4 10.9-46 1.4-.8 2.7-1.3 3.9-1.8.5-.2 1.1-.3 1.6-.4.1 0 .3-.1.4-.1.4-.1.9-.1 1.3-.2-.4.2-.3.2-.2.2"/>
    <path class="prefix__st4" d="M40.5 334.9c-3.4-4.1-7-8-11.4-15.4-6.2-10.5-10.9-24.8-14.1-39.6a60 60 0 0 0 9.2 4.3c-.1 7.3 3.9 15.3 3.9 15.3s1.6-4.8 2.4-3.5c.9 1.5 4.4 14.5 6.7 13.8.1 0-.1-3.5.2-3.3.8.4 2 3.3 7.1 7.9.6.6 1.3 1.1 1.9 1.6.8 4 2.1 8.3 4.2 13.6 8 20.5 2.6 20.5-10.1 5.3"/>
    <path class="prefix__st10" d="M31.2 99.5c2.1-8.6 8.7-15.3 15.2-19.8 6.6-4.6 13.8-6.6 22.5-6.2 2.8.1 4.1-1.4 4.8-2.9 1.3-2.9 0-5.7 0-5.7 1.4.4 3 2 4.5 2.9 6.6 4 16.8 4.7 23 4.7 21.6 0 35.6 0 46.2 19.3 2.4 4.3 6 14.2 3.6 25.2-3.6 16.1-5.5 22.8-22.9 34.8-20.7 14.3-63.6 21.4-85-5.6-10-12.6-15.8-30.6-11.9-46.7"/>
    <path class="prefix__st11" d="M71 106.8c-7.2-3.6-13.1 14.6-12.5 19.9 2 18 28.3 17 40.4 10.9 17.6-8.8-3.9-37.1-16.5-32.1m-52.1-6.4c-2.9 11.5 1.1 28.9 4.1 31.1 2.3 1.7 15.1-3 24-16.5 6-9 8-22.2 5.8-24.5-8.2-9-19.7-9.2-22.3-8.7-3.7.7-8.9 8-11.6 18.6"/>
    <path class="prefix__st11" d="M93.6 84.7c3.2 42.3 47.2 56.3 52.2 49 3.2-4.7 10.2-26.4 1.7-41.2-.8-1.4-4.6-10.7-22.8-16.1-12.2-3.6-23.5.6-31.1 8.3"/>
    <path class="prefix__st12" d="M66.6 106.8c-.1-2.7 5.2-5.2 11.9-5.5s12.3 1.6 12.4 4.3-5.2 5.2-11.9 5.5-12.3-1.6-12.4-4.3"/>
    <path class="prefix__st13" d="M78.8 112v8.1c0 3.9 5.9 10.6 14.8 4.5"/>
    <path class="prefix__st0" d="M55.2 98.1c0 11.4-21.8 11.8-23 1.7-.5-4.9 1.6-7.1 5-7.9 5.1-1.2 18.3-2 18 6.2"/>
    <path class="prefix__st13" d="M55.2 98.1c0 11.4-21.8 11.8-23 1.7-.5-4.9 1.7-6.9 5-7.9 5.6-1.6 18.3-2 18 6.2"/>
    <path class="prefix__st7" d="M39.6 98.5c0-2.2 1.8-4 4-4s4 1.8 4 4-1.8 4-4 4-4-1.8-4-4"/>
    <path class="prefix__st0" d="M134.7 96.8c-1.2 10.1-26.4 12.2-26.6-1-.1-5.3 6.1-7 15-7.5s12.4 1.6 11.6 8.5"/>
    <path class="prefix__st13" d="M134.7 96.8c-.7 10.2-26.4 12.2-26.6-1-.1-5.3 6.1-7 15-7.5s12.1 1.7 11.6 8.5"/>
    <path class="prefix__st7" d="M117.4 95.8c.2-2.2 2.2-3.8 4.4-3.6s3.8 2.2 3.6 4.4-2.2 3.8-4.4 3.6-3.8-2.2-3.6-4.4"/>
    <path class="prefix__st13" d="M76 125.3c-2.3 2.1-6 2.9-10.4-1.5"/>
    <path class="prefix__st14" d="M93.6 85.2c17.2-14.3 38.3-10.7 57.3 7.8m-86.6-3.9c-15.5-13.8-30.4-11.8-44.7 8.6m44.5-1.5c6.7-6.1 21.1-7.4 29.4-2.9"/>
    <path class="prefix__st15" d="M64.1 96.2c0 14.2-11.5 25.6-25.6 25.6h-.7c-2 0-4-.3-5.9-.8a25 25 0 0 1-13.1-8.4 25.54 25.54 0 0 1 17.7-41.8c.7-.1 1.3-.1 2-.1 3.7 0 7.2.8 10.4 2.2 1 .4 1.9.9 2.8 1.5 1.7 1 3.3 2.3 4.7 3.7 4.8 4.5 7.7 10.9 7.7 18.1"/>
    <linearGradient id="prefix__SVGID_1_" gradientUnits="userSpaceOnUse" x1="27.4" y1="91.54" x2="38.3" y2="96.14">
        <stop offset="0" stop-color="#fff" stop-opacity=".2"/>
        <stop offset="1" stop-color="#fff" stop-opacity="0"/>
    </linearGradient>
    <path d="m48.9 72.8-20 47.2c-4-1.6-7.5-4.2-10.1-7.4l17.7-41.9c.7-.1 1.3-.1 2-.1 3.7 0 7.2.8 10.4 2.2" fill="url(#prefix__SVGID_1_)"/>
    <linearGradient id="prefix__SVGID_00000028286060892860335540000015367795622642620336_" gradientUnits="userSpaceOnUse" x1="41.82" y1="97.63" x2="46.84" y2="99.76">
        <stop offset=".01" stop-color="#fff" stop-opacity="0"/>
        <stop offset="1" stop-color="#fff" stop-opacity=".2"/>
    </linearGradient>
    <path d="m56.4 77.9-18.6 43.9c-2 0-4-.3-5.9-.8l19.8-46.7c1.7 1 3.3 2.2 4.7 3.6" fill="url(#prefix__SVGID_00000028286060892860335540000015367795622642620336_)"/>
    <path class="prefix__st15" d="M144.8 93.3a25.6 25.6 0 0 1-28.7 25.4c-2-.2-3.9-.7-5.7-1.4a27 27 0 0 1-12.6-9.9c-2.7-4.1-4.3-9-4.3-14.2a25.57 25.57 0 0 1 41.7-19.9c5.9 4.8 9.6 12 9.6 20"/>
    <linearGradient id="prefix__SVGID_00000160911335056699863800000000113166485643208346_" gradientUnits="userSpaceOnUse" x1="106.01" y1="87.79" x2="116.9" y2="92.39">
        <stop offset="0" stop-color="#fff" stop-opacity=".2"/>
        <stop offset="1" stop-color="#fff" stop-opacity="0"/>
    </linearGradient>
    <path d="m127.5 69.1-19.9 47.1c-3.9-2-7.2-5-9.7-8.6l16.7-39.4c1.5-.3 3-.4 4.6-.4 2.9-.1 5.7.4 8.3 1.3" fill="url(#prefix__SVGID_00000160911335056699863800000000113166485643208346_)"/>
    <linearGradient id="prefix__SVGID_00000083796678342151603840000017028371147562884247_" gradientUnits="userSpaceOnUse" x1="120.44" y1="93.88" x2="125.44" y2="96">
        <stop offset="0" stop-color="#fff" stop-opacity="0"/>
        <stop offset="1" stop-color="#fff" stop-opacity=".2"/>
    </linearGradient>
    <path d="m135.3 73.4-19.2 45.3c-2-.2-3.9-.7-5.7-1.4l20-47.1c1.8 1 3.4 2 4.9 3.2" fill="url(#prefix__SVGID_00000083796678342151603840000017028371147562884247_)"/>
    <circle class="prefix__st14" cx="38.5" cy="96.2" r="25.6"/>
    <circle class="prefix__st14" cx="119.2" cy="93.3" r="25.6"/>
    <path class="prefix__st4" d="M180.3 159.5h-1.6c-.3 0-.6 0-.9.1-.5.1-1.1.1-1.6.2-.4.1-.8.1-1.2.2-6.2 1.3-11.6 4.6-15.8 8.4 5.6-26.8 4.8-51.4-8.1-74.3-13.9-24.6-38.4-33.2-60.2-34.8C85.8 59.1 80 57 80 51.7c-9.3 2.2-9.3 7.1-18.9 9.8a79 79 0 0 0-27.8 13.8 33 33 0 0 1 5.4-6.8c1.7-1.8 3.6-3.3 5.8-4.7-2.6-.3-6.1-.5-9.1.9.6-1.1 1.2-1.9 1.7-2.7.2-.2.3-.4.5-.6.7-.8 1.4-1.5 2.2-1.9.3-.2.7-.4 1-.6.9-.4 1.8-.7 2.9-1 0 0 0-.1-.1-.1 0-.1-.1-.1-.1-.1-1-.7-6.7-2.4-11.4-.7.2-.2.3-.5.5-.7.3-.4.7-.9 1.1-1.2 2.5-2.5 5.9-3.7 9-4.5.7-.2 1.4-.3 2-.4.2 0 .4-.1.6-.1.6-.1 1.2-.2 1.7-.3.2 0 .3-.1.5-.1.3-.1.6-.1.8-.2.8-.2 1.2-.5 1.2-.8 0-1-1.2-1.7-3-2.1s-4.2-.4-6.4-.2c-.3 0-.6.1-.9.1a20 20 0 0 1 4.7-2.8c.6-.2 1.1-.4 1.7-.6 1.4-.5 2.9-.8 4.4-.9.6-.1 1.2-.1 1.8-.1 4-.1 8.1.7 11.8 2.2.2-.3.4-.7.6-1 .3-.5.6-1.1 1-1.6 5.2-7.9 11.8-11.1 19.7-11.1-.8 4.8-.5 7.9 1.7 10.4.1.1.1.2.2.2.5.6 1.2 1.1 1.9 1.6 6.2-4.6 8.3-5 14-5-3.7 2.9-4.3 4.8 3.7 7.8l.9.3c.4.1.8.3 1.2.4.7.2 1.5.5 2.2.8.5.2 1.1.4 1.6.6a117 117 0 0 1 14.5 6.9c40 22.9 53.3 62.9 53.5 104.9"/>
    <path class="prefix__st1" d="M585.6 346.8c1.4 4.4 7.7 15.3.3 17.1-7.4 1.7-26.1.8-44.2.1-15.5-.6-29.6-1-29-2.1 4.3-5.4 11.3-11.7 29.4-14.9-6.3-2.2-10.7-7.4-12.9-13.8-7.6 2-15.7 2.8-24 2.8 0 .2 0 .3.1.5 0 .2 0 .4.1.5 0 .2.1.4.1.6s.1.4.1.6.1.4.1.6l.3 1.2c.1.2.1.4.2.6.2.6.3 1.2.5 1.8.2.5.3 1.1.5 1.6 1.2 3.8 2.9 8 4.3 11.4.1.3.2.6.2.9v.5c-.8 4-13.3 4.1-16.2 4.2-5.3.2-11.8.5-17.1.6-13.1.2-37.9 1.5-40.9 1.5-1.5 0-2.7-.1-2.8-.6v-.1c-.1-.6.7-1.7 2.9-3.6 1.1-1 16.4-12.8 29.2-12.4h.1c-1.9-1.9-3.8-4.9-5.3-8.4-.1-.2-.2-.5-.3-.7l-.6-1.5c-1.2-3-2.1-6.3-2.5-9.3-.5-.2-1-.4-1.5-.7-6.6-2.9-13.7-6-19.1-10.8-5.1-4.5-6.3-7.5-7.1-7.9-.2-.1-.1 3.3-.2 3.3-2.3.8-5.8-12.3-6.7-13.8-.7-1.2-2.4 3.5-2.4 3.5s-4-7.9-3.9-15.3c-2.7-1-5.2-2.2-7.6-3.4-.6-.3-1.2-.7-1.8-1-.3-1.1-.5-2.2-.7-3.2s-.3-2.1-.3-3.1c-.6-10.2 3.1-21.5 6.6-30.5.2-.7.5-1.3.8-1.9.1-.3.3-.7.4-1 .7-1.7 1.6-3.6 2.4-5.6l.6-1.2c.2-.4.4-.9.6-1.3.1-.2.2-.3.2-.5.1-.3.3-.6.4-.8.4-.9.9-1.7 1.3-2.5s.8-1.5 1.2-2.2c-.1-.2-.2-.3-.2-.5v-.1c-.9-2-1.4-4-1.5-6.1v-3.1c.1-1.6.4-3.2.8-4.8 1.7-6.9 5.5-13.7 8.2-18.9.7-1.3 2.3-4.1 2.5-5.3v-.1c0-.8-1-1.9-1.2-3.2v-.2c0-.4 0-.9.2-1.3.3-.6 1.1-2 1.9-3 .2-.3.4-.6.7-.8l.2-.2c.2-.2.4-.3.5-.3s.2 0 .2.2v.2c0 .2 0 .3-.1.4v-.4c.1-1.2.3-4.4.4-7.1.1-2.5 0-4.8-.2-4.8-.8-.2-1.3 1.5-1.5 1.7-.6.6.3-1.5.4-2.3.2-2 .5-4.4.2-6.5-.1-.5-1 1-1.2.6-.5-1 .2-2.9 0-4-.3-2.2-1.7-4.5-2.7-6.5-11.2-22.4-18.6-49.8-4.7-73.4 3.1-5.3 6.9-9.4 11.8-12.6-2.6-.3-6.1-.5-9.1.9 2.7-4.8 4.9-5.9 8.3-6.7.1-.5-6.3-2.8-11.6-.8 4.7-7.7 17.5-6.6 17.5-8.4 0-2.1-5.8-2.8-10.3-2.1 6.9-5.6 16.6-5.6 24.4-2.3-3.3-3.5-3.2-8-1.1-10.5 5.4 5.3 14.6 8.9 26.1 9-2.4-.7-3.4-2.9-2.5-4.9 2.6 2.3 12.1 5.1 22.3 8.5 3.8 1.3 8.8 3.5 12.2 5.1 44.9 22.1 59.5 64.3 59.6 108.5.1 21.4 26.3 97.3 15.4 134.6-7.3 14.5-6.5 36.9-1.7 51.7"/>
    <path class="prefix__st1" d="M433.4 335.7c-3.4-4-7-8-11.3-15.4-14.9-25.2-21.6-72.7-17-96.1 4.2 3 10.8 4.3 17.5 4.8-.3 9 1.4 13.8 2.8 15.4.9 18.3 3.1 28.1 5.5 34.6 2.2 5.5 5 11.2 8.3 16.9-1.4 14.7-1 21 4.3 34.4 8.1 20.5 2.6 20.5-10.1 5.4"/>
    <path class="prefix__st2" d="M433.8 171.7c0 2.2-.1 4.9-.2 7.6-.5 7.1-4 14.1-5.8 20.5-3.5 12.5-4.9 22.1-5.1 29.1-6.8-.4-13.3-1.8-17.5-4.8-1.2-.8-2.2-1.8-3-2.9 4.5-34.9 21.7-48.7 31.6-49.5"/>
    <path class="prefix__st3" d="M561.8 364.7c-2.6-.1-5.3-.1-7.9-.2-1.2 0-2.5-.1-3.7-.1l-8.5-.3h-2.2c-1.5-.1-2.9-.1-4.4-.2h-1l-7.4-.3h-1c-.4 0-.8 0-1.1-.1-.5 0-.9 0-1.4-.1-.4 0-.9 0-1.3-.1-.5 0-1-.1-1.4-.1-.5 0-1-.1-1.4-.1-.9-.1-1.7-.1-2.5-.2-.4 0-.7-.1-1-.1h-.1c-.3 0-.5-.1-.8-.1-.2 0-.4 0-.5-.1h-.2c-.4-.1-.7-.1-.9-.2-.1 0-.1 0-.2-.1-.1 0-.1 0-.1-.1l-.1-.1v-.1c.6-.8 1.3-1.5 2-2.3.2-.3.5-.5.8-.8l.8-.8c.3-.3.6-.5.9-.8 2-1.7 4.6-3.5 7.8-5.1.6-.3 1.2-.6 1.8-.8.1 0 .1 0 .2-.1.3-.1.6-.3.9-.4.4-.2.9-.3 1.3-.5.4-.1.8-.3 1.2-.4l.9-.3 1-.3c.2-.1.4-.1.7-.2l.9-.3c.3-.1.6-.2.9-.2 1-.3 2-.5 3-.7l1.6-.3c.8-.2 1.7-.3 2.5-.5 8.1 2.9 16.1 8.6 19.9 17.5m-81.4-3.1h-2.1c-13.1.2-37.9 1.5-40.9 1.5-1.3 0-2.2 0-2.7-.4s-.2-1.2 1.4-2.7l.3-.3.3-.3c.2-.2.5-.4.7-.7 1.1-1 16.4-12.8 29.3-12.4 5.3 3.6 10.8 8.8 13.7 15.3"/>
    <path class="prefix__st4" d="M511.7 356.6v.3c0 .2-.1.3-.1.4s-.1.2-.2.4q-.15.3-.6.6c-.2.2-.5.4-.8.5-.1.1-.3.2-.5.2a24 24 0 0 1-5.6 1.5c-.2 0-.5.1-.7.1s-.5.1-.7.1-.5 0-.7.1c-1.6.2-3.2.2-4.4.3h-3.9c-.8 0-1.6.1-2.4.1-.6 0-1.3 0-1.9.1h-1.4c-1.1 0-2.1.1-3.2.1-1.5 0-3 .1-4.4.1h-2.1c-13.1.2-37.9 1.5-40.9 1.5h-1.4c-.2 0-.3 0-.5-.1h-.5s-.1 0-.1-.1c-.1 0-.1 0-.1-.1l-.1-.1c-.1-.1-.1-.2-.1-.3v-.3c0-.1.1-.2.1-.3v-.1s0-.1.1-.1c0-.1.1-.1.1-.2s.1-.2.2-.3c0 0 0-.1.1-.1.1-.1.2-.3.4-.5.1-.1.1-.2.2-.3l.3-.3.3-.3.3-.3c.2-.2.5-.4.7-.7l.1-.1.1-.1s.1 0 .1-.1c.2-.2.5-.4.9-.7 0 0 .1 0 .1-.1 0 0 .1 0 .1-.1 2.1-1.5 6.2-4.4 11.1-6.8.1-.1.3-.1.4-.2 1-.5 2-.9 3-1.3.1-.1.3-.1.4-.2.1 0 .1 0 .1-.1.6-.2 1.2-.5 1.8-.7.9-.3 1.7-.6 2.6-.8.3-.1.5-.2.8-.2.8-.2 1.6-.4 2.4-.5h.3c.2 0 .4-.1.6-.1h.6c.2 0 .4 0 .6-.1h.3c.3 0 .6 0 1-.1h1.8s-.1 0-.1-.1l-.3-.3c-.6-.6-1.1-1.3-1.7-2.1-1.3-1.8-2.5-4.1-3.5-6.6l-.6-1.5c-1.2-3-2-6.3-2.5-9.3 13.6 5.7 30.6 9.4 47.1 9.5 0 .2 0 .3.1.5 0 .2 0 .4.1.6 0 .2.1.4.1.6s.1.4.1.6.1.4.1.6l.3 1.2c.1.2.1.4.2.6.9 3.3 2.2 7 3.6 10.5.4 1.1.8 2.2 1.3 3.2.2.4.3.9.5 1.2.4.5.5.9.5 1.2m77.1 5.4c-.2.3-.4.5-.6.7-.5.5-1.3.9-2.3 1.1-4.7 1.1-12.3 1.1-24.1.8h-.5c-1.1 0-2.2-.1-3.3-.1-2.2-.1-4.4-.1-6.6-.2-.5 0-1.1 0-1.6-.1-.6 0-1.2 0-1.8-.1-.8 0-1.5-.1-2.3-.1-1.3 0-2.7-.1-4-.1-1 0-2-.1-3-.1h-3.3c-1.4 0-2.8-.1-4.1-.2h-1.8c-.6 0-1.2 0-1.8-.1H526c-1 0-2-.1-2.9-.1h-.9l-8-.7c12-4.7 32.8-6.1 42.7-5.5h.1c4.4.3 7.9.7 9.8.8 6.7.2 9.1-1.3 6.3-10.7-2.7-9-11.1-25.6-5.7-53.4 5.7.8 14.9 1.1 20.1 1.1-7.5 15.7-6.1 38.6-1.7 52.1 1 3.3 5.3 11.1 3 14.9"/>
    <path class="prefix__st5" d="M444.9 169.6v5.9m6.3-2.9v5.9"/>
    <path class="prefix__st2" d="M587.3 294.6c-16.4 3.3-52 3.4-76.3 3.2-8.4.1-16.7 0-24.6-.3-16.8-.6-34.5-3.3-50.1-7-4.1-1-8.1-2-11.8-3.2-2.6-.8-5-1.6-7.3-2.4-2.7-1-5.2-2.2-7.5-3.4-.6-.3-3.7-1.4-3.8-2.3-.2-1.2 1.6-16.4 3-22 .6-2.4 1.4-4.8 2.1-7.1q1.2-3.45 2.4-6.6c.2-.7.5-1.3.8-1.9.1-.3.3-.7.4-1 .7-1.7 1.6-3.7 2.4-5.6l.6-1.2c.2-.4.4-.9.6-1.3.1-.2.2-.4.2-.5.2-.3.3-.6.4-.8l.3-.6c.3-.6.6-1.2 1-1.8.4-.8.8-1.5 1.2-2.2-.1-.2-.2-.3-.2-.5v-.1c-.9-1.9-1.4-4-1.5-6.1v-2.4c0-.2 0-.5.1-.7.1-1.6.4-3.2.8-4.8.3-1.3.7-2.6 1.1-3.9 1.9-5.5 4.8-10.8 7-15.1.1-.2.2-.3.3-.6l.3-.6c.1-.2.2-.5.4-.7.1-.2.3-.5.4-.8.3-.6.6-1.2.8-1.8.1-.2.1-.4.2-.6 0-.1 0-.2.1-.2v-.1c0-.8-1-1.9-1.2-3.2v-.2c0-.3 0-.7.1-1 0-.1.1-.2.1-.3.3-.6 1.1-1.9 1.9-3 .2-.3.4-.6.7-.8l.2-.2c.1-.1.3-.2.4-.3h.2l.1.1v.6c10.8 3.1 20.5 5 29.5 6 25.3 2.9 43.8-1.1 58.2-5 10.4-2.8 30.8-10.7 50.8-19.3.5 22.5 26 96.8 15.2 133.6"/>
    <path class="prefix__st6" d="M514.9 361.8a81 81 0 0 1 26.3-7.8c4-.5 8-.7 11.8-.5m-116.3 8.4c4.9-4.1 27.2-12.3 35.5-10.9"/>
    <path class="prefix__st6" d="M542.1 347c8.1 3.2 15.9 9.3 19.7 17m-95.1-17.6c5.4 3.6 10.4 7.9 13.3 13.6"/>
    <path class="prefix__st6" d="M529.2 333.2c2.2 6.4 6.6 11.6 12.9 13.8-18.1 3.2-25.1 9.5-29.4 14.9-.5 1.1 13.5 1.6 29 2.1 18 .7 36.7 1.6 44.2-.1 7.4-1.7 1.2-12.7-.3-17.1-4.8-14.8-5.6-37.2 1.7-52.1M505.1 336c0 .2 0 .3.1.5 0 .2.1.4.1.6s.1.4.1.6.1.4.1.6.1.4.1.6l.3 1.2c.1.2.1.4.2.6.2.6.3 1.2.5 1.8.2.5.3 1.1.5 1.6 1.2 3.8 2.9 7.9 4.3 11.4.1.3.2.6.2.9v.5c-.8 4-13.3 4.1-16.2 4.2-5.3.2-11.8.5-17.1.6-13.1.2-37.9 1.5-40.9 1.5-1.5 0-2.7-.1-2.8-.6v-.1c-.1-.6.7-1.7 2.9-3.6 1-1 16.4-12.8 29.2-12.4h.1c-1.9-1.9-3.8-4.9-5.3-8.4-.1-.2-.2-.5-.3-.7l-.6-1.5c-1.2-3-2.1-6.3-2.5-9.3"/>
    <path class="prefix__st10" d="M420.7 103.6c1.1-11.6 4.8-16.6 11.7-20.3 9.3-4.9 14.2-7 24.3-8 3.6-.3 7.7-.5 8.3-4.1.3-1.6-.3-3.3-1.9-5.5 3.2 0 6.6 1.3 9.2 3.4 5.2 4.2 13.1 6.8 19.3 6.6 21.7-.7 35.5 1.8 46 20.9 2.4 4.3 6 14.1 3.5 25-3.6 15.9-5.5 22.6-22.7 34.5-20.5 14.2-63 21.2-84.2-5.6-9.9-12.5-15.1-29.6-13.5-46.9"/>
    <path class="prefix__st11" d="M462.2 111.5c-7.2-3.6-13 14.5-12.4 19.7 2 17.8 28 16.9 40.1 10.8 17.4-8.7-3.9-36.7-16.3-31.8m-52.9-6.6c-1.4 13.6 2.3 28.9 5.3 31.1 2.3 1.7 14.4-5.6 22.4-17.6 8.5-12.6 9.5-32.8 4.1-39.3-1.1-1.4-15.8 1.5-24.6 7.9-2.7 2-5.9 5.7-7.2 17.9m67.4-26.7c-7.8 44.6 43.2 68.6 48.2 61.4 3.2-4.6 10-24 2.4-39.4-3.9-7.9-9.9-11.3-14.7-14-6-3.3-13.8-5.7-22.2-7.3-6.2-1.2-13.3-3.2-13.7-.7"/>
    <path class="prefix__st12" d="M457.9 111.6c-.1-2.7 5.2-5.1 11.8-5.5 6.7-.3 12.2 1.6 12.3 4.3s-5.2 5.1-11.8 5.5c-6.7.3-12.2-1.6-12.3-4.3"/>
    <path class="prefix__st20" d="M469.9 112.8c0 4.8 0 10.7 1.3 17.3"/>
    <path class="prefix__st14" d="M535.6 94.5c-11.9-13.5-27.7-17.8-46.2-17.6m-72.2 21.8c9.8-13 17.1-17.8 35.3-20.9"/>
    <path class="prefix__st20" d="M462.6 125.3c4.3 7.5 13.6 6.3 16.9-2.5"/>
    <path class="prefix__st6" d="M433.9 171.7c-9.9.7-27.2 14.4-31.8 49.6 3.2 4.5 10.3 6.7 18 7.4"/>
    <path class="prefix__st3" d="M447 346c-.4.6-1.7.5-3-.3s-3-2.3-5.2-4.4l-1-1c-.4-.4-.9-.9-1.3-1.4-.3-.3-.6-.7-1-1-.8-.9-1.7-1.8-2.6-2.8-3.5-3.9-7.2-8.9-10.8-14.8 7.1 2.1 11.5.9 17.2-1.4.8 2.8 2.3 6.6 3.6 9.8 4 10.1 5.1 15.7 4.1 17.3"/>
    <path class="prefix__st6" d="M407.6 280.4c4.6 21.2 13 41.7 24.5 53.8 16.2 17.1 19.1 16.9 11.1-4.5-2-5.3-3.3-9.4-4-13.1m-34.1-92.5c-2.6 13.2-2.2 30.9 1.1 49.2"/>
    <path class="prefix__st6" d="M430.9 321.6c1.3 6.5 7.9 15.4 15.7 24.3m-43.4-131.4c4.9 4 10 5.5 15.9 6.4"/>
    <path class="prefix__st6" d="M422.1 320.3c5.1 1.5 10 1.7 17.2-1.4"/>
    <path class="prefix__st5" d="M446.4 300.3v6m6.2-2.1-.1 6"/>
    <path class="prefix__st4" d="M412 247.3c3.6-4.3 8-10.1 10.1-11.3 4.3-2.7 10.4-2.3 15.2-2.3 12.4 0 22 10.2 35.2 11.5 8.1.8 22.4-6.9 20.2-10.8-1.9-3.2-5-.7-21.9-1.2-12.7-.4-24.2-1.5-36.6-3.6-3-.5-10.1-.5-12.6-5-.5 2-2.7 6.8-3.7 8.9-2.5 4.7-4.6 10.3-5.9 13.8"/>
    <path class="prefix__st6" d="M433.4 179.2c41.2 11.8 83.1 3.4 87.7 1.1"/>
    <path class="prefix__st6" d="M511 297.9c-8.4.1-16.7 0-24.5-.3-21.3-.8-43.9-4.9-61.9-10.2-2.6-.8-13.8-4.9-18.7-8.2 1.1-14.5 4.1-26.7 7.6-35.6.2-.7.5-1.3.8-1.9.1-.3.3-.7.4-1 .7-1.7 1.6-3.7 2.4-5.6l.6-1.2h0v0c.2-.4.4-.9.6-1.3.1-.2.2-.3.2-.5.1-.3.3-.6.4-.9.9-1.7 1.7-3.3 2.5-4.7v-.1c-.1-.2-.2-.4-.2-.5v-.1c-.9-1.9-1.4-4-1.5-6.1v-3.1c.1-1.6.4-3.2.8-4.8 1.7-6.9 5.5-13.7 8.2-18.9.7-1.3 2.4-4.1 2.5-5.3v-.2q0 0 0 0c0-.8-1-1.9-1.2-3.2v-.2c0-.4 0-.9.2-1.3.3-.6 1.1-1.9 1.9-3 .2-.3.5-.6.7-.8l.2-.2c.2-.2.4-.3.5-.3s.2 0 .2.2v.4q0 0 0 0v.1h0v.2"/>
    <path class="prefix__st6" d="M439.8 181.3c-.6 1.7-1.2 3-1.2 4.9m11.7-2.8c-.8 1.6-.9 3.6-.9 5.4m13.5-3.7-.7 4.2m9.6-3.1v3.3m-4.9-3v2.3m34.8-3.7v2.3m3.5-2.3v1.8"/>
    <path class="prefix__st7" d="M462.9 222.2c-.5-1.7-2-3-4.8-3.1-5.8-.3-11.8-.4-19.1-.6-.2.6-.3 1.1-.5 1.7a55 55 0 0 1-4.7 9.4c-.4.8-.9 1.5-1.3 2.3-.4.6-.7 1.2-1 1.8-2.4 4.3-4.4 8.7-4.6 13.9 3.3 0 6.4.1 9.7.2-.2-4.2 1.4-8.1 3.5-11.8 2.9-.4 3.4.8 3.6 2.5.3 3.1 1.1 6.3 2.8 9.7 3.5.2 6.8.4 10.5.7-2-3.5-1.9-7.2-2.8-10.2-.2-.6-.4-1.1-.6-1.6-.4-.8-.9-1.4-1.7-2 .5-.1.8-.2 1.1-.2q2.7-.75 4.8-2.1c.1 0 .1-.1.2-.2 2.4-1.6 4.2-3.8 5-6.6.2-1.4.3-2.7-.1-3.8m-16.3 2.4c2 0 3.9-.1 5.6.1s2 1.4 1.2 2.9c-.8 1.4-2.2 2.5-4 2.6-2 .2-3.9.2-6 .2 1.2-2.1 2.3-3.9 3.2-5.8"/>
    <path class="prefix__st7" d="M489.6 227.6c-3.2.2-6.1.3-9 .5.4-2.6-.7-3.9-3-4-1.5-.1-2.9.4-4 2.2-.4 1.5.3 2 1.3 2.3l5.7 1.8c1.1.4 2.1.8 3.1 1.4 6.3 3.4 2.9 12.2-3.2 16.2-2 1.3-4.4 2.1-6.5 2.4-3.5.5-6.9.2-10.2-1-4.3-1.5-6.8-5.6-4.9-10.5 2.8 0 5.5 0 8.5-.1 0 .6-.1 1.2-.1 1.7.1 3 2.9 4.5 6.1 3.5 1.4-.5 2.6-1.4 3.1-2.8.4-1.3 0-2.3-1-2.8-.9-.5-1.8-.8-2.7-1.1-1.9-.7-3.8-1.3-5.5-2.2-3.1-1.8-3.5-4.6-2-7.9 1.7-3.7 4.6-6.7 8.5-7.8 3.7-1.1 7.4-1.1 11.2.2 3.8.9 5.6 3.4 4.6 8"/>
    <path class="prefix__st6" d="M541.7 328.5c-10.6 5.3-23.4 7.5-36.6 7.4h0c-16.5-.1-33.5-3.8-47.1-9.5q0 0 0 0c-.5-.2-1-.4-1.5-.7-6.6-2.9-13.7-6-19.1-10.8-5-4.5-6.3-7.4-7.1-7.9-.2-.1-.1 3.3-.2 3.3-2.3.8-5.8-12.3-6.7-13.8-.7-1.2-2.4 3.5-2.4 3.5s-4-7.9-3.9-15.3v-.1m13.8-97.1c7.6 5.6 39.4 12.4 80.6 5.9"/>
    <use class="prefix__st0" xlink:href="#prefix__reuse-2"/>
    <use class="prefix__st21" xlink:href="#prefix__reuse-2"/>
    <circle class="prefix__st7" cx="510.2" cy="102" r="2.3"/>
    <use class="prefix__st0" xlink:href="#prefix__reuse-3"/>
    <use class="prefix__st21" xlink:href="#prefix__reuse-3"/>
    <circle class="prefix__st7" cx="436" cy="102" r="2.3"/>
    <use class="prefix__st8" xlink:href="#prefix__reuse-4"/>
    <path class="prefix__st4" d="M576 284.4 532.7 312c-5.7 3.2-11.2 2-14.7-3.2l-44.9-69.7c-2.6-4.4-1.8-8.3.1-11 1.5-2.2 3.8-3.5 5.2-4.3-4.2 5.2-3.9 10.9-1.7 14.2 12.1 18.8 43.4 66.2 43.4 66.2 3.5 5.1 8.1 5.3 12.9 2.7 0 0 26.4-17 39.5-25.4 3.5-2.3 7.4-7.8 4.5-16.5 1.4 2.1 3 3.9 3.8 5.8 1 2.2 2.1 8.8-4.8 13.6"/>
    <path class="prefix__st9" d="M532.3 202.6c-3.3-4-6.7-4.2-11.8-1.9 0 0-1.7.8-48.3 27l48.4-31.2c5.4-3.3 11.1-2.2 14.7 3.2l47.7 74c-25.1-35.5-50.7-71.1-50.7-71.1"/>
    <use class="prefix__st6" xlink:href="#prefix__reuse-4"/>
    <use xlink:href="#prefix__reuse-5"/>
    <use xlink:href="#prefix__reuse-5"/>
    <path class="prefix__st1" d="M613.9 282.1c-2.5 8.3-12.9 13.7-36.1 12.4-17-1-31.4-3.9-54.2-13.4-11.1-4.7-17.1-2.6-21.9-9.3-11.7-16.1-22.6-12-21.3-14.2s6.9-7.9 14.1-8.5c13.7-1.1 17.8 11 25.9 11.7 13.3 1.1 48 3 49.9.1 1.4-2.1-2.7-6.7-6.3-12.4-2.5-4-3.2-6.7-3.9-10.8.1-.1 21.2-23.3 53.5-15.1.8.2 2.4 7.4 3.4 13.7 3.7 22.4-.1 36.2-3.1 45.8"/>
    <path class="prefix__st2" d="M615.7 222.4c-.5.2-1.2.3-2 .2-29-2.2-41.6 7.9-50.8 14.8-.1.1-.2.2-.3.2-5.4 3.8-6.6-2.2-6.7-7.8-.8-1.4-2.4-3.9-4.9-6.9-.8-3.7-1.6-8.4-3.5-11.6l-4.1-34.2c6.2-8.7 18.2-19.9 34.9-16.9 19.6 3.6 29.5 15.5 37.4 53.8.5 2.3 3 7.3 0 8.4"/>
    <path class="prefix__st4" d="M615.7 222.4c-.5.2-1.2.3-2 .2-3.8-.3-7.4-.4-10.7-.3-.3-4.5-.9-9.1-1.7-13.6-2.4-13.7-10.8-47.2-31.9-48.9 2.8-.3 5.8-.3 8.9.3 19.6 3.6 29.5 15.5 37.4 53.8.5 2.4 3 7.4 0 8.5"/>
    <path class="prefix__st3" d="M506.9 276.1c-1.9-.9-3.6-2.2-5.2-4.4-11.7-16.1-22.6-12-21.3-14.2s6.9-8 14.1-8.5c11.1-.9 16 7 21.8 10.3-5 2.6-10.8 7-9.4 16.8"/>
    <path class="prefix__st4" d="M613.9 282.1c-2.5 8.3-12.9 13.7-36.1 12.4-17-1-31.4-3.9-54.2-13.4-11.1-4.7-17.1-2.6-21.9-9.3-11.7-16.1-22.6-12-21.3-14.2 1-1.7 4.7-5.7 9.8-7.5-1.1 3.5 5.3 4.7 10.1 9.9 5.5 6 4.4 10.2 13.7 13.7s48.5 15.3 70.3 13.2c21.7-2.1 21.2-6.8 23.2-15.2 2-8.6 1-26.6-3.1-49.3 2.9 0 6.3.2 9.3.3.8 0 2.4 7.4 3.4 13.7 3.6 22.3-.2 36.1-3.2 45.7"/>
    <path class="prefix__st6" d="M560.2 237.7c.6 3.3 2 6.7 3.2 9.3 2.8 6.1 8.3 11.7 7 13.8-1.9 2.9-36.6 1-49.9-.1-8.1-.7-12.2-12.8-25.9-11.7-7.3.6-12.8 6.4-14.1 8.5-1.3 2.2 9.6-1.9 21.3 14.2 4.9 6.7 10.8 4.7 21.9 9.3 22.8 9.5 37.1 12.5 54.2 13.4 23.2 1.3 33.1-4.3 36.1-12.4 3.3-8.8 6.9-25.6 3-47.4-.6-3.2-1.6-9.1-3.2-12.1"/>
    <path class="prefix__st6" d="M562.9 237.4c-7 1.5-6.9-2.1-7-7.9m-5-6.6c2.6 3.1 4.2 5.7 5 7m-5-7c-.8-3.7-1.6-8.4-3.5-11.6m-4-34.2c6.2-8.7 18.2-19.9 34.9-16.9 19.6 3.6 29.5 15.5 37.4 53.8.6 2.8 3.9 9.2-2 8.7-12.5-1.2-27.2 0-41.1 8"/>
    <path class="prefix__st6" d="M556.8 229.6c9-9.7 25.4-18.3 41.6-16.8"/>
    <path class="prefix__st6" d="M564.2 224.1c.6 1.6 1.4 2.6 2.4 4m6-8.8 1.9 3.6m6.4-7.2 1 3.9"/>
    <path class="prefix__st5" d="m604.4 244.8-.1 5.9m-6-1.2v5.9"/>
    <path class="prefix__st6" d="M506.9 276.1c-1.1-6.4 1.8-13.3 9.4-16.7"/>
    <path class="prefix__st6" d="M480.4 257.6c11.7-5.5 19.5-4.9 29 7.1m62.5-105.3c.5-44.2-14.7-85.6-59.6-107.7-3.4-1.6-8.4-3.8-12.2-5.1-10.2-3.4-19.7-6.1-22.3-8.5-1 2.1 0 4.2 2.4 4.9-11.5-.2-20.7-3.8-26.1-9.1-2.1 2.5-2.2 7 1.1 10.5-7.8-3.3-17.5-3.3-24.4 2.3 4.6-.7 10.3 0 10.3 2.1 0 1.8-12.7.7-17.5 8.4 5.2-2 11.7.3 11.6.8-3.4.8-5.6 1.9-8.3 6.7 3-1.4 6.5-1.2 9.1-.9-4.8 3.2-8.6 7.3-11.8 12.6-13.9 23.5-6.5 51 4.7 73.4 1 2 2.4 4.2 2.7 6.5.2 1.1-.5 3 0 4 .2.4 1.2-1.1 1.3-.6.3 2.1 0 4.4-.2 6.5-.1.8-1 2.8-.4 2.3.2-.2.7-1.9 1.5-1.7.4.1 0 11.3-.3 12.4m121.8 118.2c6.2-.3 22.4-.9 32-2.7"/>
    <path class="prefix__st4" d="M522.1 334.7c-.3 0-.6.1-.9.1-.4.1-.8.1-1.2.2-.6.1-1.2.2-1.8.2-1.2.1-2.3.3-3.5.4-3.2.3-6.4.4-9.7.4-16.5-.1-33.5-3.8-47.1-9.5-.5-.2-1-.4-1.5-.7-2.9-1.3-5.9-2.6-8.8-4-.8-.4-1.6-.9-2.4-1.3-2.1-1.2-4.1-2.4-5.9-3.9-.7-.5-1.3-1-1.9-1.6-.3-.3-.6-.6-.9-.8-.4-.4-.8-.8-1.2-1.1-.5-.5-.9-1-1.3-1.4l-.6-.6c-.2-.2-.3-.4-.5-.6-1.3-1.6-2-2.7-2.4-3.1-.1 0-.1-.1-.2-.1-.2-.1-.1 3.3-.2 3.3h-.4c-.4-.1-.9-.7-1.4-1.5-.2-.3-.3-.6-.5-.9-1-1.9-2-4.7-2.8-7-.1-.2-.1-.4-.2-.6-.7-1.9-1.2-3.4-1.4-3.8-.1-.1-.1-.2-.2-.2s-.3 0-.4.2c-.3.3-.6.9-.9 1.5 0 .1-.1.1-.1.2v.1c-.1.2-.2.4-.3.7 0 .1-.1.2-.1.3-.2.4-.3.8-.3.8-.1-.1-1-2-1.9-4.7-.1-.2-.1-.4-.2-.5-.1-.4-.2-.8-.4-1.1-.8-2.6-1.5-5.8-1.4-8.8v-.1q2.4.9 5.1 1.8h.1c.9.3 1.7.6 2.2.7 3.8 1.1 7.7 2.2 11.8 3.2 15.6 3.7 33.2 6.4 50.1 7 3.2.1 6.5.2 9.9.2-25.9.3-47.6-3.5-58.2-4-3.4-.1-5.7.1-6.6.9-1.4 1.3-.5 8 7.1 15.3 2.3 2.2 5.2 4.4 8.8 6.5 18.5 10.7 53 20 74.6 17.9m-88.3-163c0 .9 0 1.8-.1 2.8v1.9c0 .3 0 .6-.1.9v1.7-.3s0-.1-.1-.1c0 0-.1-.1-.1 0h-.1c-.1 0-.2.1-.4.3l-.2.2c-.2.2-.4.5-.7.8-.8 1-1.6 2.4-1.9 3 0 .1-.1.2-.1.3v1.2c0 .2.1.3.1.5.3.9.8 1.7 1 2.3v.1c0 .1.1.2.1.3v.2c0 .2-.1.4-.2.6-.2.5-.5 1.2-.8 1.8-.1.2-.3.5-.4.8-.1.2-.3.5-.4.7l-.3.6-.3.6c-2.2 4.3-5.1 9.6-7 15.1-.4 1.3-.8 2.6-1.1 3.9-.2.6-.3 1.2-.4 1.8 0 .2-.1.4-.1.6-.1.4-.1.8-.2 1.2s-.1.8-.1 1.2v3.1c0 .2 0 .5.1.7 0 .2 0 .3.1.5 0 .3.1.6.1.9 0 .2.1.4.1.6v.1c0 .2.1.3.1.4v.3c.1.2.1.4.2.5.1.2.1.4.2.7.2.4.3.9.5 1.3-.3.8-.7 1.8-1.1 2.8s-.9 1.9-1.2 2.8c0 0 0 .1-.1.1-.1.1-.1.3-.2.4-.1.2-.2.3-.2.5-.2.4-.4.9-.6 1.3l-.6 1.2c-.9 1.9-1.7 3.8-2.4 5.6-.1.4-.3.7-.4 1-.2.6-.5 1.3-.8 1.9q-1.2 3.15-2.4 6.6c-.8 2.3-1.5 4.7-2.1 7.1-.1.4-.2.9-.3 1.4-.8 3.2-1.4 6.6-1.6 9.8-.2 1.2-.3 2.4-.5 3.6-1-5.8-1.7-11.6-2.2-17.3 3.1-7.9 6.3-17.4 9.2-27.2.2 0 .5.1.7.2-.2 0-.5-.1-.7-.2.7-2.4 1.4-4.9 2.1-7.4 4.9-17.7 8.9-35.4 10.9-46 1.4-.8 2.7-1.3 3.9-1.8.5-.2 1.1-.3 1.6-.4.1 0 .3-.1.4-.1.4-.1.9-.1 1.3-.2-.3.2-.2.2-.2.2m138.1-12.3h-.4c-.2 0-.5 0-.7.1h-.5c-.3 0-.6 0-.9.1h-.4c-8.2 1.1-15 5.5-20 10.5-.2.1-.4.2-.7.3 6.9-67.5-17-94.3-42.2-105.2-4.8-2.1-11.3-9-15.9-10.1.5 3.8-5.7 4-9 3.6-4.2-.5-9.3-6.5-20-9.2 5.3 5.9 1.2 8.9-1.9 9.4-2.2.4-8-2.5-13.7-.6 2.9 1.4 2.3 3.4 0 4.3-12 4.6-20.4 11.8-23.7 18.3q1.05-2.25 2.4-4.5c1-1.7 2-3.2 3.1-4.6.9-1.2 1.9-2.2 2.9-3.2 1.7-1.8 3.6-3.3 5.8-4.7-2.6-.3-6.1-.5-9.1.9.6-1 1.2-1.9 1.7-2.6.2-.2.3-.4.5-.6 1.8-2.2 3.7-2.9 6.1-3.5 0 0 0-.1-.1-.1l-.1-.1c-1-.7-6.7-2.4-11.4-.7.2-.2.3-.5.5-.7.3-.5.7-.9 1.1-1.2 2.4-2.5 5.9-3.7 9-4.5.7-.2 1.4-.3 2-.5.2 0 .4-.1.6-.1.6-.1 1.2-.2 1.7-.3.2 0 .3-.1.5-.1.3-.1.6-.1.9-.2.8-.2 1.2-.5 1.2-.8 0-2.1-5.8-2.8-10.3-2.1 6.9-5.6 16.6-5.6 24.4-2.3-3.3-3.5-3.2-8-1.1-10.5 5.4 5.3 14.6 8.9 26.1 9a4 4 0 0 1-1.9-1.1c-.1-.1-.2-.3-.4-.5-.6-.9-.7-1.9-.4-3 0-.1.1-.3.2-.4 2.6 2.4 12.1 5.1 22.3 8.5.7.2 1.5.5 2.2.8.5.2 1.1.4 1.6.6a117 117 0 0 1 14.5 6.9c1.3.7 2.5 1.5 3.7 2.2.7.4 1.3.8 2 1.3 35.6 23.1 47.6 61.2 47.8 101.2"/>
    <path class="prefix__st4" d="M433.4 335.7c-3.4-4.1-7-8-11.4-15.4-6.2-10.5-10.9-24.8-14.1-39.6a60 60 0 0 0 9.2 4.3c-.1 7.3 3.9 15.3 3.9 15.3s1.6-4.8 2.4-3.5c.9 1.5 4.4 14.5 6.7 13.8.1 0-.1-3.5.2-3.3.8.4 2 3.3 7.1 7.9.6.6 1.3 1.1 1.9 1.6.8 4 2.1 8.3 4.2 13.6 8.1 20.4 2.6 20.4-10.1 5.3"/>
    <path class="prefix__st1" d="M225 348.8c-3.7-4.4-7.6-8.7-12.4-16.8-16.3-27.5-23.7-79.5-18.6-105.1 4.6 3.2 11.8 4.7 19.2 5.2-.3 9.8 1.5 15.1 3.1 16.8.9 19.9 3.4 30.7 6 37.8 2.4 6 5.5 12.2 9.1 18.5-1.5 16-1.1 22.9 4.7 37.6 8.8 22.5 2.8 22.5-11.1 6"/>
    <path class="prefix__st22" d="M225.4 169.5c-.1 2.5-.1 5.4-.3 8.3-.5 7.8-4.3 15.5-6.3 22.4-3.9 13.7-5.4 24.1-5.6 31.8-7.4-.5-14.5-2-19.2-5.2-1.3-.9-2.4-2-3.3-3.2 5.1-38.2 23.9-53.2 34.7-54.1"/>
    <path class="prefix__st1" d="M396.9 283.5c1.1-8.8 1.7-16.2 1.5-23.6-.2-5.7-2-7.9-3.9-12.4-9.4-23.9-18.9-61.5-18.3-90.3 1-49.3-17-95.7-65-118.1-7.8-3.8-16-5.8-24.2-8.8-1.5-.6-4.8-1.4-5.9-3.1-1.3-1.9-.4-4.6-.5-4.6-7 1.2-3.9 7.4-3.9 7.4s-1.4-.1-2-.2c-2.9-.6-5.9-3.2-5.7-7.6.3-5.8 6.6-8.2 5.6-8.7-.2-.1-11.3-5.2-19.8 1.5-4.7 3.7-6.9 8.7-5.3 15.4-10.5-1.9-8.9-11-9-11-9.3 1.7-12.8 12.6-6.2 17 0 1.1-4.5.9-7.6-1.3-2.3-1.6-3.2-5.2-3.5-5.1-8.8 5.4-4.7 14.8 3.1 15.7.6.1 1.8.1 1.6.7-.1.2-1.8 1.4-4.7 1.5-3 0-4.2-1.5-4.3-1.1-1.3 4 5.3 7.5 7.8 6.2-5.2 3.5-8.8 7.6-12.2 13.5-14.9 25.9-6.9 55 5.4 79.5 1.1 2.2 2.6 4.6 3 7.1.2 1.2-.5 3.3 0 4.3.2.5 1.3-1.2 1.4-.7.2 1.9.1 4.1-.1 6.1-.1.5-1 3-.6 3.2.4.3 2.2-1.7 2.1-.2-.2 2.7-.1 7.4-.4 11.9-.5 7.8-4.3 15.5-6.3 22.4-8.9 31.3-5.2 45.5-2.5 48.6 1 21.3 3.7 32.1 6.5 39.1 2.8 7.1 6.9 15.2 9.9 19.7 4.5 6.7 10.3 13.7 17.7 21 .5.5 1.1 1.1 1.7 1.5-2.3 7.9 3.4 24.5 9.4 30.4-14-.4-30.8 12.5-32 13.6-4.9 4.5-3.4 4.8 0 4.8s30.4-1.4 44.7-1.6c5.8-.1 12.9-.4 18.7-.6 3.5-.1 20-.2 17.5-6.2-3-7.1-6.7-16.9-7-22.4 9.1.6 18.2 0 26.4-1.9 2.4 7 7.2 12.7 14.1 15-19.8 3.5-27.4 10.4-32.1 16.2-.6 1.2 14.8 1.7 31.7 2.3 19.7.7 40.2 1.8 48.3-.1s1.3-13.8-.3-18.6c-5.3-16.2-7.3-38.4.8-54.9 3.2-7.1 3.4-15.1 4.4-22.5"/>
    <path class="prefix__st3" d="m365.3 380.4-8.7-.3c-1.4 0-2.7-.1-4.1-.1l-9.3-.3c-.5 0-.9 0-1.4-.1h-.9c-1.6-.1-3.2-.1-4.8-.2H335l-8.1-.3h-1.1c-.4 0-.8 0-1.3-.1-.5 0-1-.1-1.5-.1s-1-.1-1.4-.1c-.5 0-1.1-.1-1.5-.1-.5 0-1.1-.1-1.6-.1-1-.1-1.9-.1-2.7-.2-.4 0-.8-.1-1.1-.1h-.1c-.3 0-.6-.1-.9-.1-.2 0-.4-.1-.6-.1h-.2c-.4-.1-.7-.2-1-.2-.1 0-.2-.1-.2-.1-.1 0-.1-.1-.2-.1l-.1-.1v-.2c.7-.8 1.4-1.7 2.2-2.5.3-.3.5-.6.8-.9l.9-.9.9-.9c2.2-1.9 5-3.8 8.6-5.5.6-.3 1.3-.6 2-.9.1 0 .1-.1.2-.1.3-.1.7-.3 1-.4.5-.2.9-.4 1.4-.5.4-.2.9-.3 1.3-.5l1-.3c.4-.1.7-.2 1.1-.4.2-.1.5-.1.7-.2.3-.1.6-.2 1-.3.3-.1.6-.2 1-.3 1.1-.3 2.2-.6 3.3-.8.6-.1 1.2-.2 1.8-.4.9-.2 1.8-.4 2.8-.5 8.9 3.4 17.7 9.7 21.9 19.3m-89-3.3c-.8 0-1.5 0-2.3.1-14.3.2-41.4 1.6-44.7 1.6-1.4 0-2.4-.1-2.9-.4-.5-.4-.2-1.3 1.5-3l.3-.3.3-.3c.2-.2.5-.5.8-.7 1.1-1 18-14 32-13.6 5.8 3.8 11.8 9.5 15 16.6"/>
    <path class="prefix__st22" d="M398.8 259.6c.1 7.6-.3 15.5-1.3 23.5-1.1 8.7-2 16.1-5 22.7-.5 1.2-1.2 2.6-1.6 3.8-10.5 12.3-36.1 19.5-55.8 22.8-35 5.9-65.8 3.1-88.1-7.8-13.6-14.2-20.9-27.2-25-39.5-.8-2.3-1.4-4.6-2-6.9-2.6-10.4-3.1-20.3-3.6-30-3.5-2-5.7-23.6 2.3-48.2 1.7-5.3 4.2-10.2 4.4-11.5.1-1.1-2.1-3.1-1.1-5.2.7-1.4 4.3-6.7 3.8-3.8 44.6 12.8 89.4 3.6 94.9 2.4 8.2-1.8 16.9-4.3 25.6-7.3 4.1-7.1 11.1-16 30.1-17.9 7.2-.5 22.2 86.7 22.4 102.9"/>
    <path class="prefix__st7" d="M248 216.3c5.8.5 11 .8 16.1 1.3 4.2.4 5.2 3.5 4.9 6.3-.4 3.9-2.7 6.4-6.6 7.6-.2.1-.4.1-.8.2 3.9 2.6 3.8 7.6 6.2 12.2-3.1-.2-5.8-.4-8.7-.6-1.4-3-2.5-5.8-3.4-8.6-.5-1.5-1.3-2.7-3.5-2.4-.8 3.3-1.3 6.7-1.2 10.6-2.7-.2-5.2-.3-7.8-.5-.5-8.9 3-17.6 4.8-26.1m6.7 5.8c-.4 1.7-.8 3.3-1.4 5.2 1.7 0 3.4.1 5 0 1.5-.1 2.4-1 2.8-2.2.4-1.3-.2-2.4-1.7-2.6-1.4-.3-3-.3-4.7-.4m33.1-3.4c-3.1-1.2-6.4-1.4-9.7-.6-3.5.8-5.9 3.4-6.8 6.6-.7 2.9.3 5.4 3.4 6.9 1.6.8 3.3 1.3 5 2 .8.3 1.7.6 2.4 1 .9.5 1.4 1.3 1.2 2.4-.2 1.2-1.1 2-2.2 2.4-2.5.8-4.9-.5-5.5-3.1-.1-.5-.1-.9-.2-1.5h-7.1c-.6 4.2 1.5 7.8 5.1 9.2q4.05 1.5 8.4.9c1.8-.2 3.7-.9 5.3-2 4.8-3.2 6.4-10.6.7-13.7-.9-.5-1.8-.9-2.8-1.3-1.7-.6-3.5-1.1-5.2-1.7-.9-.3-1.7-.8-1.5-2 .7-1.5 1.9-1.8 3.2-1.7 2 .2 3.1 1.4 3.1 3.6 2.4 0 4.8 0 7.4-.1.4-3.7-.9-6-4.2-7.3"/>
    <path d="M243 246c.6 0 1.3.1 1.9.1 0 .3-.1.7-.1 1 .8-.8 1.7-1.1 2.6-1.1.5 0 .9.1 1.3.4.4.2.6.5.8.9.4-.4.8-.7 1.2-.8.4-.2.9-.3 1.3-.2.6 0 1.1.2 1.5.4s.7.6.8 1c.1.3.2.9.1 1.6q-.15 2.4 0 4.8c-.7 0-1.4-.1-2.1-.1-.1-1.4-.1-2.9 0-4.3 0-.7 0-1.2-.2-1.5s-.5-.5-.9-.5c-.3 0-.6.1-.9.2-.3.2-.5.4-.6.7s-.2.8-.2 1.6c0 1.2 0 2.4.1 3.6-.7 0-1.4-.1-2.1-.1-.1-1.4-.1-2.8-.1-4.1v-1.4c-.1-.2-.2-.4-.3-.5s-.4-.2-.6-.2c-.3 0-.6.1-.9.2-.3.2-.5.4-.6.7s-.2.8-.3 1.6c0 1.2 0 2.5.1 3.7-.7 0-1.4-.1-2.1-.1-.2-2.6-.1-5.1.3-7.6m18.4 6c.7.1 1.4.3 2.1.4-.3.7-.7 1.3-1.3 1.6-.6.4-1.3.5-2.2.5-1.4-.1-2.5-.5-3.2-1.4-.5-.7-.8-1.6-.8-2.6 0-1.3.4-2.2 1.2-2.9q1.05-1.05 2.7-.9c1.2.1 2.1.5 2.8 1.3s1 1.9.9 3.5l-5.4-.3c0 .6.2 1.1.5 1.4q.45.45 1.2.6c.3 0 .6-.1.8-.2.4-.3.6-.6.7-1m.2-2c0-.6-.2-1-.4-1.3-.3-.3-.7-.5-1.1-.5-.5 0-.9.1-1.2.4s-.5.7-.5 1.3c1 0 2.1.1 3.2.1m11.1 5c-.7 0-1.4-.1-2.1-.1 0-1.3.1-2.6.1-3.8 0-.8 0-1.3-.1-1.6-.1-.2-.2-.4-.4-.6-.2-.1-.5-.2-.7-.2-.4 0-.7.1-1 .2-.3.2-.5.4-.6.7s-.2.9-.2 1.7v3.4c-.7 0-1.4-.1-2.1-.1 0-2.5 0-5 .1-7.6.7 0 1.3.1 2 .1v1.1c.7-.8 1.6-1.2 2.7-1.1.5 0 .9.1 1.3.3a2.2 2.2 0 0 1 1.3 1.6c.1.3.1.8.1 1.4-.3 1.5-.3 3-.4 4.6m6.1-7.3v1.6c-.5 0-1 0-1.5-.1 0 1 0 2-.1 3v1.1c0 .1.1.2.2.3s.2.1.4.1.5 0 .9-.1c0 .5.1 1 .1 1.6-.5.2-1.1.2-1.7.2-.4 0-.7-.1-1-.2s-.5-.3-.7-.5c-.1-.2-.2-.5-.3-.8v-1.4c0-1.1.1-2.2.1-3.3h-1v-1.6h1v-1.5c.7-.4 1.4-.7 2.1-1.1 0 .9.1 1.8.1 2.7zm.9 3.8c0-.7.2-1.3.6-1.9s.8-1.1 1.5-1.4c.6-.3 1.4-.4 2.1-.4 1.2.1 2.3.5 3 1.3.8.8 1.2 1.7 1.1 2.9a4.2 4.2 0 0 1-1.4 2.8c-.9.7-1.9 1-3.1 1-.7 0-1.4-.2-2-.6-.6-.3-1.1-.8-1.4-1.4-.2-.7-.4-1.5-.4-2.3m2.2.2c0 .7.1 1.3.5 1.7s.8.6 1.4.7c.6 0 1-.1 1.4-.5s.6-.9.7-1.7c0-.7-.1-1.3-.5-1.7s-.8-.6-1.4-.7c-.6 0-1 .1-1.4.5s-.6.9-.7 1.7m9.5 4.2c-.7 0-1.4-.1-2.1-.1.4-2.5.5-5 .4-7.5.7 0 1.3.1 2 .1v1.1c.3-.5.6-.8.9-1 .3-.1.6-.2.9-.2.5 0 1 .2 1.4.4-.2.6-.4 1.1-.6 1.7-.4-.2-.7-.4-1-.4s-.6.1-.8.2-.4.4-.5.8-.2 1.2-.4 2.5c0 .9-.1 1.6-.2 2.4"/>
    <path class="prefix__st4" d="M310.4 372.5c-.1.1-.1.3-.2.4-.2.2-.4.5-.6.7s-.5.4-.8.6c-.2.1-.3.2-.5.3-.5.2-1.1.5-1.7.7-1.3.4-2.8.7-4.4.9-.3 0-.5.1-.8.1-.2 0-.5.1-.8.1s-.5.1-.8.1c-1.8.2-3.5.3-4.8.3h-4.2c-.8 0-1.7.1-2.6.1-.7 0-1.4.1-2.1.1-.5 0-1 0-1.5.1-1.2 0-2.3.1-3.5.1-1.7.1-3.3.1-4.9.1-.8 0-1.5 0-2.2.1-14.3.2-41.4 1.6-44.7 1.6h-1.5c-.2 0-.4 0-.5-.1h-.2c-.1 0-.2 0-.2-.1h-.2c-.1 0-.1 0-.1-.1-.1 0-.1-.1-.2-.1l-.1-.1c-.1-.2-.1-.3-.1-.5v-.1c0-.1.1-.2.1-.3v-.1s0-.1.1-.1c0-.1.1-.2.2-.2.1-.1.1-.2.2-.3l.1-.1c.1-.2.3-.3.4-.5l.3-.3.3-.3.3-.3.3-.3c.2-.2.5-.5.8-.7l.1-.1.1-.1.1-.1.1-.1c.2-.2.5-.4.9-.7l.1-.1.1-.1c2.3-1.7 6.8-4.8 12.2-7.4.2-.1.3-.1.5-.2 1.1-.5 2.1-1 3.3-1.5.2-.1.3-.1.5-.2.1 0 .1 0 .1-.1.6-.2 1.3-.5 1.9-.7.9-.3 1.9-.6 2.8-.9.3-.1.6-.2.9-.2l2.6-.6h.3c.2 0 .5-.1.7-.1h.7c.2 0 .4-.1.7-.1h.3c.4 0 .7-.1 1.1-.1h1.9l-.5-.5c-.6-.7-1.2-1.5-1.8-2.3-5-7.3-9-20.9-7-27.7 11.5 10.1 31.5 16.7 51.2 17.9v.1c.3 4.4 2.6 11.3 5.1 17.6.5 1.2.9 2.4 1.4 3.5.2.5.4.9.6 1.4.3.3.3 1 .1 1.6m84.4 5c-.2.3-.4.5-.6.8-.6.6-1.4 1-2.5 1.3-5.2 1.2-13.4 1.2-26.3.9h-.5c-1.2 0-2.4-.1-3.6-.1-2.4-.1-4.8-.2-7.2-.2-.6 0-1.2 0-1.8-.1-.7 0-1.3 0-1.9-.1-.8 0-1.7-.1-2.5-.1-1.5-.1-2.9-.1-4.4-.2-1.1 0-2.2-.1-3.3-.1-.5 0-.9 0-1.4-.1h-.7c-.5 0-1 0-1.5-.1-1.5-.1-3-.1-4.5-.2h-1.9c-.7 0-1.4-.1-2-.1h-1.9c-1.1 0-2.1-.1-3.1-.2h-1.1c-.2 0-8.6-.8-8.8-.8 13.1-5.2 35.9-6.7 46.7-6h.1c4.8.3 8.7.8 10.7.9 7.3.3 10-1.4 6.9-11.7-2.9-9.8-6.5-26.8-6.2-38.5 7.9-3.3 14.8-7.4 19.2-12.3-5.3 15.8-3.9 35.9.9 50.7 1 3.6 5.7 12.2 3.2 16.3"/>
    <path class="prefix__st4" d="M342.8 341.4c3.2-2 9.7-6.1 11.7-8.9-38.5 17.1-74.9 9.2-96.3 1.8 19.6 11.1 35.8 13.7 51 13.7s25.2-3.2 33.6-6.6m-126.1-85.9c16.2 3.7 46-1.4 46.5-1.2.5.1 6 1.2 19.8 4.8s29.8 7 38.1 7c3.1 0 7-2.8 11.3-7.6 4.4-5 8.2-10.9 11.8-17.5-7.7 11.5-17.2 16.6-19.9 17.3-3.4.9-4.4.9-9.2.6-15.4-1.2-47.5-10.4-51-10.9-2.5-.4-38.1 5.8-48-1.3m30.5 24c-9.2.5-20.6 6.8-24.7 14.5-.8-2.3-1.4-4.6-2-6.9 7-5.3 16.1-8 26.7-7.6"/>
    <path class="prefix__st4" d="M392.5 305.9c-.6 1.2-1.2 2.6-1.6 3.8-10.5 12.3-36.1 19.5-55.8 22.8-35 5.9-65.8 3.1-88.1-7.8-2.7-2.8-5.2-5.6-7.4-8.4 3.1 1.5 7.2 3.6 10.4 5.1 9.1 4.2 18.6 5 20.6 1.7 1-1.7 2.5-5.1 1.6-9.2-1.2-5.6-4.8-16.5-2-27-1.5 12 5.9 21.1 6.3 30 0 9.8 8.9 11.6 18.8 12.2 7.7.5 15.1.5 29.3-1 14.8-1.6 17.3-5.8 17.5-14.9.1-6.7-1.5-18-4.9-23.6-4.1-6.9-18.3-11.5-33.6-14.9 10.3-.2 30.8 1.4 40.5 10.1 3.2 2.8 6.3 6.3 9.9 8.7 14.5 9.3 33.5 13.4 38.5 12.4m-81.4-267c-7.8-3.8-16-5.8-24.2-8.8-1.5-.6-4.8-1.4-5.9-3.1-1.3-1.9-.4-4.6-.5-4.6-7 1.2-3.9 7.4-3.9 7.4s-1.4-.1-2-.2c-2.9-.6-5.9-3.2-5.7-7.6.3-5.8 6.6-8.2 5.6-8.7-.2-.1-11.3-5.2-19.8 1.5-4.7 3.7-6.9 8.7-5.3 15.4-10.5-1.9-8.9-11-9-11-9.3 1.7-12.8 12.6-6.2 17 0 1.1-4.5.9-7.6-1.3-2.3-1.6-3.2-5.2-3.5-5.1-8.8 5.4-4.7 14.8 3.1 15.7.6.1 1.8.1 1.6.7-.1.2-1.8 1.4-4.7 1.5-3 0-4.2-1.5-4.3-1.1-1.3 4 5.3 7.5 7.8 6.2-5 3.3-8.4 7.2-11.7 12.7 4.8-5.7 12.9-11.3 23.9-14.9-1.3-1.1-.2-4.3 1.9-4.8-.5 2.4 3.9 3.3 8.8 2.1-1.3-1.4-2.7-6 3.3-7.6-2.8 4.1 3.7 7.3 6.5 6.6 3.1-.7 2.9-2.3 1.7-3.5 2.3-1.2 4.6 1.5 5.7 2.1 2.3 1.1 4.9.6 11.2 1.6 35.7 5.5 55.1 20.7 64 40.4 7.5 16.6 15.7 46.3 12.4 77.5 3.4-2.8 7.5-5.1 12.5-6.4 3.2-.9 6.3-1.4 9.3-1.6.4-48.3-17-95.7-65-118.1"/>
    <path class="prefix__st5" d="M237.5 167.2v6.5m6.9-3.2v6.5"/>
    <path class="prefix__st6" d="M246.6 324.6c22.3 11.2 52.9 13.9 88.2 7.9 19.8-3.3 45.3-10.5 55.8-22.8m-165-130c44.6 12.8 95.1 4.5 118.6-4.2m-43.5 18.6c-12.7 4.4-61.9 4.1-77.3-6.1m9.1-6.1c-.6 1.9-1.3 3.3-1.3 5.3"/>
    <path class="prefix__st6" d="M243.9 184.2c-.8 1.7-1 3.9-1 5.8m13.9-4.6v5.1m10.3-3.3v3.6m-5.3-3.3v2.5m37.7-4v2.5m3.8-2.5v2M314 377.3c8.4-4.3 18.7-7.3 28.8-8.5 4.4-.5 8.8-.7 12.9-.5m-127.2 9.1c5.4-4.5 29.7-13.5 38.8-11.9"/>
    <path class="prefix__st6" d="M343.8 361.1c8.8 3.5 17.4 10.2 21.6 18.6m-104.1-19.3c5.9 3.9 11.4 8.6 14.5 14.8m100.5-218.3c.5-48.4-17-95.7-65-118.1-7.8-3.8-16-5.9-24.2-8.9-1.5-.6-4.8-1.4-5.9-3.1-1.3-1.9-.4-4.6-.5-4.6-7 1.2-3.8 7.4-3.8 7.4s-1.4-.1-2.1-.2c-2.9-.6-5.9-3.2-5.7-7.6.3-5.8 6.6-8.2 5.6-8.7-.3-.1-11.3-5.2-19.8 1.5-4.7 3.7-6.8 9.9-5.2 16.6m-23.5 21.3c-2.6 1.3-8.5-1.9-7.2-6 .1-.4 1.3 1.1 4.3 1.1 2.9 0 4.7-1.3 4.7-1.5.2-.5-1-.6-1.6-.7-7.8-.9-11.9-10.3-3.1-15.7.3-.2 1.2 3.5 3.5 5.1 3.1 2.2 7.6 2.4 7.6 1.3-6.6-4.4-3.2-15.3 6.2-17 .2 0-2 9.1 8.4 11m-21.2 21.7c-5.2 3.5-9.4 8-12.8 13.8-15.2 25.7-7.1 55.7 5.1 80.2 1.1 2.2 2.6 4.6 3 7.1.2 1.2-.5 3.3 0 4.3.2.5 1.3-1.2 1.4-.7.3 2.2 0 4.8-.2 7.1-.1.8-1.1 3.1-.5 2.5.2-.2.8-2.1 1.6-1.8.5.2 0 12.2-.2 13.5"/>
    <path class="prefix__st6" d="M329.6 346c2.4 7 7.2 12.7 14.1 15-19.8 3.5-27.4 10.4-32.1 16.2-.6 1.2 14.8 1.7 31.7 2.3 19.7.7 40.2 1.8 48.3-.1s1.3-13.8-.3-18.6c-5.3-16.2-7.1-38.7.8-54.9m-140.2 24.2c-2.3 7.9 3.4 24.5 9.4 30.4-14-.4-30.8 12.5-32 13.6-4.9 4.5-3.4 4.8 0 4.8s30.4-1.4 44.7-1.6c5.8-.1 12.9-.4 18.7-.6 3.5-.1 20-.2 17.5-6.2-3-7.1-6.7-16.9-7-22.4"/>
    <path class="prefix__st10" d="M211.1 95.1c1.1-12.7 5.3-18.1 12.8-22.1 10.2-5.4 15.5-7.7 26.6-8.7 3.9-.4 8.4-.5 9-4.4.3-1.7-.4-3.6-2.1-6 3.5 0 7.3 1.4 10.1 3.7 5.7 4.6 14.3 7.5 21.1 7.3 23.8-.8 38.8 2 50.3 22.8 2.6 4.7 6.5 15.4 3.8 27.3-3.9 17.4-6 24.7-24.9 37.7-22.4 15.5-68.9 23.2-92-6.1-10.8-13.9-16.4-32.6-14.7-51.5"/>
    <path class="prefix__st11" d="M256.4 103.8c-7.8-3.9-14.2 15.9-13.5 21.5 2.2 19.4 30.6 18.4 43.8 11.8 19-9.5-4.3-40.2-17.9-34.7m-57.7-7.3c-1.5 14.9 2.5 31.6 5.8 34 2.5 1.9 15.7-6.1 24.5-19.2 9.3-13.8 8.3-32.9 5.9-35.3-1.4-1.4-18.5-3.3-28.3 1-3.4 1.5-6.5 6.2-7.9 19.5"/>
    <path class="prefix__st11" d="M284.6 72.1c-5.8 44.5 47.4 68.8 52.8 60.9 3.5-5.1 10.2-26.3 2.6-43.1-4-8.7-12.2-18.5-16.4-18.5-7.5-.1-18.9-2.8-26.9-1-6.7 1.5-11.7-1.1-12.1 1.7"/>
    <path class="prefix__st12" d="M251.7 103.8c-.1-2.9 5.6-5.6 12.9-6s13.3 1.7 13.4 4.7c.1 2.9-5.6 5.6-12.9 6s-13.3-1.7-13.4-4.7"/>
    <path class="prefix__st20" d="M264.9 105.2c0 5.3 0 11.7 1.4 18.9"/>
    <path class="prefix__st14" d="M337.7 82.4c-15.4-12.3-33.1-14-53-10.3m-80.2 10.4c14.9-9.7 24.2-11.9 44.1-8.2"/>
    <path class="prefix__st20" d="M256.1 120.8c3.8 5.9 17.3 4.8 23.7-3"/>
    <use class="prefix__st8" xlink:href="#prefix__reuse-6"/>
    <path class="prefix__st4" d="m380.8 292.7-47.4 30.2c-6.3 3.5-12.2 2.2-16-3.5l-49.1-76.2c-2.8-4.9-1.9-9.1.1-12.1 1.6-2.4 4.2-3.8 5.7-4.7-4.6 5.7-4.3 11.9-1.9 15.6 13.3 20.6 47.5 72.4 47.5 72.4 3.8 5.6 8.9 5.8 14.1 3 0 0 28.8-18.6 43.1-27.8 3.8-2.5 8.1-8.6 5-18.1 1.5 2.3 3.2 4.3 4.2 6.4 1.1 2.3 2.3 9.6-5.3 14.8"/>
    <path class="prefix__st9" d="M333.1 203.3c-3.6-4.4-7.3-4.6-12.9-2.1 0 0-1.8.9-52.8 29.5l52.9-34c5.9-3.6 12.1-2.4 16 3.5l52.1 80.9c-27.4-38.9-55.3-77.8-55.3-77.8"/>
    <use class="prefix__st6" xlink:href="#prefix__reuse-6"/>
    <use xlink:href="#prefix__reuse-7"/>
    <use xlink:href="#prefix__reuse-7"/>
    <path class="prefix__st1" d="M422.3 290.2c-2.8 9-14.1 15-39.4 13.6-18.6-1.1-34.3-4.3-59.2-14.7-12.1-5.1-18.6-2.9-23.9-10.2-12.7-17.6-24.7-13.1-23.3-15.5s7.5-8.7 15.4-9.3c14.9-1.2 19.5 12 28.3 12.8 14.6 1.2 52.5 3.3 54.5.1 1.5-2.3-2.9-7.3-6.9-13.5-2.8-4.4-3.5-7.3-4.3-11.8.1-.1 23.2-25.4 58.5-16.5.9.2 2.7 8.1 3.8 15 3.8 24.4-.3 39.6-3.5 50"/>
    <path class="prefix__st22" d="M424.2 225c-.5.2-1.3.3-2.2.2-31.7-2.4-45.5 8.6-55.5 16.1-.1.1-.2.2-.4.2-5.9 4.1-7.2-2.4-7.3-8.6-.9-1.5-2.7-4.3-5.4-7.5-.9-4-1.7-9.2-3.8-12.7l-4.4-37.4c6.8-9.5 19.9-21.8 38.1-18.5 21.5 3.9 32.2 16.9 40.9 58.8.5 2.7 3.3 8.2 0 9.4"/>
    <path class="prefix__st4" d="M424.2 225c-.5.2-1.3.3-2.2.2-4.2-.3-8.1-.4-11.6-.3-.4-5-1-9.9-1.8-14.8-2.6-15-11.8-51.5-34.9-53.5 3-.4 6.3-.3 9.7.3 21.5 3.9 32.2 16.9 40.9 58.8.4 2.6 3.2 8.1-.1 9.3"/>
    <path class="prefix__st3" d="M305.3 283.7c-2.1-1-4-2.4-5.7-4.8-12.7-17.6-24.7-13.1-23.3-15.5s7.5-8.7 15.4-9.3c12.2-1 17.4 7.7 23.8 11.3-5.4 2.7-11.7 7.6-10.2 18.3"/>
    <path class="prefix__st4" d="M422.3 290.2c-2.8 9-14.1 15-39.4 13.6-18.6-1.1-34.3-4.3-59.2-14.7-12.1-5.1-18.6-2.9-23.9-10.2-12.7-17.6-24.7-13.1-23.3-15.5 1.1-1.9 5.1-6.2 10.7-8.3-1.2 3.8 5.8 5.1 11.1 10.9 6 6.5 4.8 11.1 15 14.9s53.1 16.7 76.8 14.4 23.2-7.5 25.3-16.6c2.2-9.4 1.8-30.4-2.6-55.2 3 .3 6.1.8 9.4 1.6.9.2 2.7 8.1 3.8 15 3.6 24.5-.5 39.7-3.7 50.1"/>
    <path class="prefix__st6" d="M363.5 241.7c.7 3.7 2.1 7.3 3.5 10.2 3.1 6.7 9.1 12.8 7.6 15.1-2.1 3.2-40 1.1-54.5-.1-8.8-.8-13.4-14-28.3-12.8-7.9.6-14 6.9-15.4 9.3s10.5-2.1 23.3 15.5c5.3 7.3 11.8 5.1 24 10.2 24.9 10.4 40.6 13.6 59.2 14.7 25.4 1.5 36.1-4.7 39.4-13.6 3.6-9.6 7.6-28 3.2-51.8-.6-3.5-1.8-9.9-3.4-13.2"/>
    <path class="prefix__st6" d="M366.5 241.3c-7.7 1.6-7.6-2.3-7.7-8.7"/>
    <path class="prefix__st6" d="M353.4 225.5c2.8 3.4 4.6 6.2 5.5 7.7m-5.5-7.7c-.9-4-1.7-9.2-3.8-12.7m-4.4-37.4c6.8-9.5 19.9-21.8 38.1-18.5 21.5 3.9 32.2 17 40.9 58.8.6 3 4.1 11.1-2.2 9.5m-62.1 7.6c9.8-10.6 27.8-20 45.5-18.3"/>
    <path class="prefix__st6" d="M367.9 226.9c.7 1.7 1.5 2.9 2.6 4.4m6.6-9.7 2.1 3.9m7-7.8 1.1 4.2"/>
    <path class="prefix__st5" d="M411.8 249.4v6.5m-6.6-1.4-.1 6.5"/>
    <path class="prefix__st6" d="M305.3 283.7c-1.2-7 1.9-14.5 10.2-18.3"/>
    <path class="prefix__st6" d="M276.3 263.4c12.8-6 21.3-5.4 31.7 7.7"/>
    <path class="prefix__st0" d="M241.2 97.8c-.6 5.3-7 3-13.2 3.6-7.1.6-13.7 4-13.8-4.1-.1-6 6-8.8 15.1-9.6s12.6 3.4 11.9 10.1"/>
    <path class="prefix__st23" d="M241.3 96.5c-3.1-5.4-8.6-5.9-15.4-4.3-7.2 1.7-10.4 4.8-11.1 8.5-.4-1-.6-2.2-.6-3.5-.1-6 6-8.8 15.1-9.6 8.5-.7 12.1 3 12 8.9"/>
    <path class="prefix__st7" d="M221.9 96.6c-.2-3.3 2.3-6.1 5.6-6.3s6.1 2.3 6.3 5.6-2.3 6.1-5.6 6.3a6 6 0 0 1-6.3-5.6"/>
    <path class="prefix__st24" d="M241.2 97.8c-.6 5.3-6.9 3.3-13.2 3.6-7.2.3-13.7 4.1-13.8-4.1-.1-6 6-8.8 15.1-9.6s12.6 3.4 11.9 10.1"/>
    <circle class="prefix__st0" cx="223.3" cy="93.9" r="2.6"/>
    <circle class="prefix__st0" cx="224.6" cy="98.3" r="1"/>
    <path class="prefix__st0" d="M297.2 96.2c1.3 5.5 7.7 2.2 14.3 1.9 7.5-.3 14.9 2.4 13.9-6.2-.7-6.3-7.5-8.5-17.1-8s-12.8 5.4-11.1 12.3"/>
    <path class="prefix__st23" d="M296.9 94.9c2.5-6 8.2-7.4 15.5-6.6 7.8.8 11.5 3.6 12.8 7.4.2-1.1.3-2.4.1-3.7-.8-6.3-7.5-8.4-17.1-8-8.9.4-12.2 4.7-11.3 10.9"/>
    <path class="prefix__st7" d="M317.2 92.4c-.2-3.5-3.2-6.1-6.7-5.9s-6.1 3.2-5.9 6.7 3.2 6.1 6.7 5.9 6.2-3.2 5.9-6.7"/>
    <path class="prefix__st24" d="M297.2 96.2c1.3 5.4 7.7 2.5 14.3 1.9 7.6-.6 15 2.5 13.9-6.2-.7-6.3-7.5-8.5-17.1-8s-12.8 5.4-11.1 12.3"/>
    <circle class="prefix__st0" cx="305.6" cy="90" r="2.8"/>
    <circle class="prefix__st0" cx="307.8" cy="94.6" r="1.1"/>
    <path class="prefix__st6" d="M225.5 169.5c-10.8.8-29.7 15.8-34.7 54.2 3.9 5.5 12.9 7.8 22.5 8.3"/>
    <path class="prefix__st3" d="M239.8 360c-.4.7-1.8.6-3.3-.3q-2.1-1.35-5.7-4.8l-1.1-1.1-1.5-1.5c-.3-.4-.7-.7-1.1-1.1-.9-.9-1.8-2-2.8-3.1-3.9-4.2-7.9-9.8-11.8-16.1 7.7 2.3 12.6 1 18.8-1.5.9 3 2.5 7.2 3.9 10.7 4.6 11 5.8 17.1 4.6 18.8"/>
    <path class="prefix__st6" d="M194 226.9c-6.5 33 4.9 94.3 29.6 120.3 17.7 18.6 20.9 18.5 12.2-4.9-6-16.2-6-21.7-4.3-36.3"/>
    <path class="prefix__st6" d="M222.2 333.4c1.5 7.1 8.6 16.9 17.2 26.6m-47.5-143.7c5.4 4.4 10.9 6 17.3 7"/>
    <path class="prefix__st4" d="M224.3 183.2c-1.4 5.9-4 11.7-5.5 17-3.9 13.7-5.4 24.1-5.6 31.8-1.3-.1-2.7-.2-4-.4v-.5c1.9-23.1 7.3-35.3 12.4-45.8z"/>
    <path class="prefix__st6" d="M342.8 341.4c-26.4 13.2-73.5 5.7-92.4-12.9-31.3-30.8-33.1-55.9-34.2-80.1-3.5-2-5.4-25 2.5-48.2 2.2-6.6 4-10.2 4.1-11.5.1-1.1-2.1-3.1-1.1-5.2.7-1.5 4.3-6.7 3.8-3.7m-12.9 152.1c5.6 1.6 11 1.9 18.8-1.5"/>
    <path class="prefix__st4" d="M230.8 355.2c12 4.5-9-30-17.5-68.5-3.8-17-4.3-34.8-4-55 1.3.1 2.6.3 3.9.3-.3 9.8 1.5 15.1 3.1 16.8.9 19.9 3.4 30.7 6 37.8 2.4 6 5.5 12.2 9.1 18.5-1.5 16-1.1 22.9 4.7 37.6 7.4 19.2 4.3 22.1-5.3 12.5"/>
</svg>